<svg version="1.1" viewBox="0.0 0.0 599.8031496062993 381.33858267716533" fill="none" stroke="none" stroke-linecap="square" stroke-miterlimit="10" xmlns:xlink="http://www.w3.org/1999/xlink" xmlns="http://www.w3.org/2000/svg"><clipPath id="p.0"><path d="m0 0l599.80316 0l0 381.3386l-599.80316 0l0 -381.3386z" clip-rule="nonzero"/></clipPath><g clip-path="url(#p.0)"><path fill="#000000" fill-opacity="0.0" d="m0 0l599.80316 0l0 381.3386l-599.80316 0z" fill-rule="evenodd"/><path fill="#000000" fill-opacity="0.0" d="m11.915172 11.915172l530.1102 0l0 360.189l-530.1102 0z" fill-rule="evenodd"/><path stroke="#ffffff" stroke-width="4.0" stroke-linejoin="round" stroke-linecap="butt" d="m11.915172 11.915172l530.1102 0l0 360.189l-530.1102 0z" fill-rule="evenodd"/><path fill="#000000" fill-opacity="0.0" d="m542.0254 146.98604l50.897644 0l0 90.04724l-50.897644 0z" fill-rule="evenodd"/><path stroke="#ffffff" stroke-width="4.0" stroke-linejoin="round" stroke-linecap="butt" d="m542.0254 146.98604l50.897644 0l0 90.04724l-50.897644 0z" fill-rule="evenodd"/><path fill="#000000" fill-opacity="0.0" d="m29.130396 74.80005l0 0c0 -10.051491 8.148344 -18.199837 18.199839 -18.199837l140.16725 0c4.8269043 0 9.4561 1.9174767 12.869232 5.3306084c3.4131317 3.4131355 5.330612 8.042332 5.330612 12.869228l0 72.79718c0 10.051483 -8.148346 18.19983 -18.199844 18.19983l-140.16725 0c-10.051495 0 -18.199839 -8.148346 -18.199839 -18.19983z" fill-rule="evenodd"/><path stroke="#d9d9d9" stroke-width="2.0" stroke-linejoin="round" stroke-linecap="butt" stroke-dasharray="16.0,6.0" d="m29.130396 74.80005l0 0c0 -10.051491 8.148344 -18.199837 18.199839 -18.199837l140.16725 0c4.8269043 0 9.4561 1.9174767 12.869232 5.3306084c3.4131317 3.4131355 5.330612 8.042332 5.330612 12.869228l0 72.79718c0 10.051483 -8.148346 18.19983 -18.199844 18.19983l-140.16725 0c-10.051495 0 -18.199839 -8.148346 -18.199839 -18.19983z" fill-rule="evenodd"/><path fill="#000000" fill-opacity="0.0" d="m229.8364 74.62854l0 0c0 -10.051491 8.148346 -18.199837 18.19983 -18.199837l89.86804 0c4.8269043 0 9.456085 1.9174767 12.869232 5.3306084c3.4131165 3.4131355 5.330597 8.042332 5.330597 12.869228l0 72.79718c0 10.051483 -8.148346 18.19983 -18.19983 18.19983l-89.86804 0c-10.051483 0 -18.19983 -8.148346 -18.19983 -18.19983z" fill-rule="evenodd"/><path stroke="#d9d9d9" stroke-width="2.0" stroke-linejoin="round" stroke-linecap="butt" stroke-dasharray="16.0,6.0" d="m229.8364 74.62854l0 0c0 -10.051491 8.148346 -18.199837 18.19983 -18.199837l89.86804 0c4.8269043 0 9.456085 1.9174767 12.869232 5.3306084c3.4131165 3.4131355 5.330597 8.042332 5.330597 12.869228l0 72.79718c0 10.051483 -8.148346 18.19983 -18.19983 18.19983l-89.86804 0c-10.051483 0 -18.19983 -8.148346 -18.19983 -18.19983z" fill-rule="evenodd"/><path fill="#000000" fill-opacity="0.0" d="m400.96783 73.23834l0 0c0 -9.283207 7.525543 -16.808735 16.808746 -16.808735l67.23291 0l0 0c4.4579773 0 8.733337 1.770916 11.88559 4.9231644c3.1522522 3.1522484 4.9231567 7.427616 4.9231567 11.885571l0 75.57938c0 9.283218 -7.5255127 16.808746 -16.808746 16.808746l-67.23291 0c-9.283203 0 -16.808746 -7.525528 -16.808746 -16.808746z" fill-rule="evenodd"/><path stroke="#d9d9d9" stroke-width="2.0" stroke-linejoin="round" stroke-linecap="butt" stroke-dasharray="16.0,6.0" d="m400.96783 73.23834l0 0c0 -9.283207 7.525543 -16.808735 16.808746 -16.808735l67.23291 0l0 0c4.4579773 0 8.733337 1.770916 11.88559 4.9231644c3.1522522 3.1522484 4.9231567 7.427616 4.9231567 11.885571l0 75.57938c0 9.283218 -7.5255127 16.808746 -16.808746 16.808746l-67.23291 0c-9.283203 0 -16.808746 -7.525528 -16.808746 -16.808746z" fill-rule="evenodd"/><path fill="#000000" fill-opacity="0.0" d="m303.95895 195.46072l0 0c0 -8.288788 6.719391 -15.008179 15.008179 -15.008179l96.25137 0c3.9804077 0 7.7977905 1.5812073 10.612366 4.3957825c2.8145752 2.8145905 4.3957825 6.6319733 4.3957825 10.612396l0 60.030884c0 8.288788 -6.7193604 15.008179 -15.008148 15.008179l-96.25137 0c-8.288788 0 -15.008179 -6.719391 -15.008179 -15.008179z" fill-rule="evenodd"/><path stroke="#d9d9d9" stroke-width="2.0" stroke-linejoin="round" stroke-linecap="butt" stroke-dasharray="16.0,6.0" d="m303.95895 195.46072l0 0c0 -8.288788 6.719391 -15.008179 15.008179 -15.008179l96.25137 0c3.9804077 0 7.7977905 1.5812073 10.612366 4.3957825c2.8145752 2.8145905 4.3957825 6.6319733 4.3957825 10.612396l0 60.030884c0 8.288788 -6.7193604 15.008179 -15.008148 15.008179l-96.25137 0c-8.288788 0 -15.008179 -6.719391 -15.008179 -15.008179z" fill-rule="evenodd"/><path fill="#000000" fill-opacity="0.0" d="m39.321995 70.47423l68.12599 0l0 81.44882l-68.12599 0z" fill-rule="evenodd"/><path stroke="#ffffff" stroke-width="2.0" stroke-linejoin="round" stroke-linecap="butt" d="m39.321995 70.47423l68.12599 0l0 81.44882l-68.12599 0z" fill-rule="evenodd"/><path fill="#ffffff" d="m60.915718 118.11864l0 -13.265625l-2.375 0l-0.015625 8.8125l-3.984375 -8.8125l-2.390625 0l0 13.265625l2.390625 0l0.015625 -8.84375l3.984375 8.84375l2.375 0zm5.679947 0l2.359375 0l4.0625 -13.265625l-2.609375 0l-2.40625 8.90625l-0.234375 0.859375l-0.21875 -0.84375l-2.390625 -8.921875l-2.609375 0l4.046875 13.265625zm10.929947 -13.265625l-2.953125 0l0 13.265625l2.203125 0l0 -4.203125l-0.109375 -5.828125l1.703125 5.796875l1.203125 0l1.890625 -6.046875l-0.109375 6.078125l0 4.203125l2.203125 0l0 -13.265625l-2.953125 0l-1.625 5.328125l-1.453125 -5.328125zm13.101822 13.453125q1.421875 0 2.453125 -0.5625q1.03125 -0.5625 1.515625 -1.265625l-1.203125 -1.25q-0.453125 0.578125 -1.15625 0.875q-0.703125 0.296875 -1.46875 0.296875q-0.5625 0 -1.03125 -0.171875q-0.46875 -0.1875 -0.84375 -0.515625q-0.34375 -0.3125 -0.546875 -0.71875q-0.203125 -0.40625 -0.328125 -1.015625l0 -0.046875l6.78125 0l0 -1.0q0 -1.078125 -0.296875 -1.96875q-0.296875 -0.890625 -0.859375 -1.53125q-0.578125 -0.640625 -1.40625 -0.984375q-0.8125 -0.359375 -1.875 -0.359375q-1.0 0 -1.859375 0.375q-0.859375 0.359375 -1.5 1.015625q-0.640625 0.671875 -1.0 1.609375q-0.359375 0.9375 -0.359375 2.078125l0 0.375q0 1.0 0.359375 1.875q0.359375 0.859375 1.015625 1.5q0.65625 0.640625 1.5625 1.015625q0.921875 0.375 2.046875 0.375zm-0.296875 -8.3125q0.53125 0 0.90625 0.171875q0.390625 0.171875 0.671875 0.453125q0.265625 0.28125 0.40625 0.671875q0.15625 0.390625 0.15625 0.796875l0 0.1875l-4.390625 0q0.09375 -0.53125 0.28125 -0.953125q0.203125 -0.421875 0.484375 -0.71875q0.296875 -0.296875 0.671875 -0.453125q0.375 -0.15625 0.8125 -0.15625z" fill-rule="nonzero"/><path fill="#000000" fill-opacity="0.0" d="m120.314125 70.47423l78.74015 0l0 81.44882l-78.74015 0z" fill-rule="evenodd"/><path stroke="#ffffff" stroke-width="2.0" stroke-linejoin="round" stroke-linecap="butt" d="m120.314125 70.47423l78.74015 0l0 81.44882l-78.74015 0z" fill-rule="evenodd"/><path fill="#ffffff" d="m135.53902 116.18114l0 -11.328125l-2.390625 0l0 13.265625l8.65625 0l0 -1.9375l-6.265625 0zm13.398697 2.125q1.421875 0 2.453125 -0.5625q1.03125 -0.5625 1.515625 -1.265625l-1.203125 -1.25q-0.453125 0.578125 -1.15625 0.875q-0.703125 0.296875 -1.46875 0.296875q-0.5625 0 -1.03125 -0.171875q-0.46875 -0.1875 -0.84375 -0.515625q-0.34375 -0.3125 -0.546875 -0.71875q-0.203125 -0.40625 -0.328125 -1.015625l0 -0.046875l6.78125 0l0 -1.0q0 -1.078125 -0.296875 -1.96875q-0.296875 -0.890625 -0.859375 -1.53125q-0.578125 -0.640625 -1.40625 -0.984375q-0.8125 -0.359375 -1.875 -0.359375q-1.0 0 -1.859375 0.375q-0.859375 0.359375 -1.5 1.015625q-0.640625 0.671875 -1.0 1.609375q-0.359375 0.9375 -0.359375 2.078125l0 0.375q0 1.0 0.359375 1.875q0.359375 0.859375 1.015625 1.5q0.65625 0.640625 1.5625 1.015625q0.921875 0.375 2.046875 0.375zm-0.296875 -8.3125q0.53125 0 0.90625 0.171875q0.390625 0.171875 0.671875 0.453125q0.265625 0.28125 0.40625 0.671875q0.15625 0.390625 0.15625 0.796875l0 0.1875l-4.390625 0q0.09375 -0.53125 0.28125 -0.953125q0.203125 -0.421875 0.484375 -0.71875q0.296875 -0.296875 0.671875 -0.453125q0.375 -0.15625 0.8125 -0.15625zm11.304947 -4.140625l-2.359375 0l0 2.40625l-2.328125 0l0 1.75l2.328125 0l0 4.671875q0 0.953125 0.25 1.640625q0.25 0.6875 0.71875 1.125q0.453125 0.4375 1.09375 0.65625q0.640625 0.203125 1.421875 0.203125q0.40625 0 0.828125 -0.046875q0.4375 -0.03125 0.828125 -0.109375q0.390625 -0.0625 0.71875 -0.171875q0.34375 -0.109375 0.609375 -0.265625l-0.25 -1.625q-0.15625 0.046875 -0.40625 0.09375q-0.234375 0.046875 -0.515625 0.078125q-0.28125 0.046875 -0.59375 0.078125q-0.296875 0.03125 -0.578125 0.03125q-0.390625 0 -0.71875 -0.09375q-0.328125 -0.09375 -0.5625 -0.3125q-0.234375 -0.21875 -0.359375 -0.578125q-0.125 -0.359375 -0.125 -0.90625l0 -4.46875l3.6875 0l0 -1.75l-3.6875 0l0 -2.40625zm9.039322 3.796875l0 -5.53125l-2.359375 0l0 14.0l2.359375 0l0 -7.125q0.15625 -0.203125 0.34375 -0.375q0.1875 -0.171875 0.421875 -0.3125q0.265625 -0.15625 0.578125 -0.21875q0.3125 -0.078125 0.671875 -0.078125q0.453125 0 0.8125 0.125q0.375 0.109375 0.625 0.375q0.25 0.25 0.375 0.640625q0.140625 0.390625 0.140625 0.9375l0 6.03125l2.359375 0l0 -6.015625q0 -1.0625 -0.265625 -1.8125q-0.25 -0.765625 -0.703125 -1.265625q-0.46875 -0.484375 -1.109375 -0.703125q-0.640625 -0.234375 -1.421875 -0.234375q-0.53125 0 -1.015625 0.15625q-0.484375 0.15625 -0.890625 0.4375q-0.265625 0.1875 -0.5 0.4375q-0.21875 0.234375 -0.421875 0.53125zm13.539322 8.65625q1.421875 0 2.453125 -0.5625q1.03125 -0.5625 1.515625 -1.265625l-1.203125 -1.25q-0.453125 0.578125 -1.15625 0.875q-0.703125 0.296875 -1.46875 0.296875q-0.5625 0 -1.03125 -0.171875q-0.46875 -0.1875 -0.84375 -0.515625q-0.34375 -0.3125 -0.546875 -0.71875q-0.203125 -0.40625 -0.328125 -1.015625l0 -0.046875l6.78125 0l0 -1.0q0 -1.078125 -0.296875 -1.96875q-0.296875 -0.890625 -0.859375 -1.53125q-0.578125 -0.640625 -1.40625 -0.984375q-0.8125 -0.359375 -1.875 -0.359375q-1.0 0 -1.859375 0.375q-0.859375 0.359375 -1.5 1.015625q-0.640625 0.671875 -1.0 1.609375q-0.359375 0.9375 -0.359375 2.078125l0 0.375q0 1.0 0.359375 1.875q0.359375 0.859375 1.015625 1.5q0.65625 0.640625 1.5625 1.015625q0.921875 0.375 2.046875 0.375zm-0.296875 -8.3125q0.53125 0 0.90625 0.171875q0.390625 0.171875 0.671875 0.453125q0.265625 0.28125 0.40625 0.671875q0.15625 0.390625 0.15625 0.796875l0 0.1875l-4.390625 0q0.09375 -0.53125 0.28125 -0.953125q0.203125 -0.421875 0.484375 -0.71875q0.296875 -0.296875 0.671875 -0.453125q0.375 -0.15625 0.8125 -0.15625z" fill-rule="nonzero"/><path fill="#000000" fill-opacity="0.0" d="m34.014908 238.44798l100.8504 0l0 109.19685l-100.8504 0z" fill-rule="evenodd"/><path stroke="#ffffff" stroke-width="2.0" stroke-linejoin="round" stroke-linecap="butt" d="m34.014908 238.44798l100.8504 0l0 109.19685l-100.8504 0z" fill-rule="evenodd"/><path fill="#ffffff" d="m65.91993 294.4039l0 -1.9375l-5.640629 0l0 -3.8125l6.406254 0l0 -1.953125l-8.796879 0l0 13.265625l2.390625 0l0 -5.5625l5.640629 0zm3.554947 -8.4375l0 1.953125l3.03125 0l0 10.109375l-3.03125 0l0 1.9375l8.3125 0l0 -1.9375l-2.90625 0l0 -12.0625l-5.40625 0zm16.929947 14.0l2.40625 0l0 -0.15625q-0.1875 -0.375 -0.28125 -0.890625q-0.09375 -0.53125 -0.09375 -1.265625l0 -4.296875q0 -0.859375 -0.328125 -1.5q-0.3125 -0.640625 -0.859375 -1.078125q-0.5625 -0.421875 -1.328125 -0.625q-0.75 -0.21875 -1.625 -0.21875q-0.984375 0 -1.75 0.25q-0.75 0.25 -1.28125 0.671875q-0.53125 0.421875 -0.8125 0.984375q-0.265625 0.546875 -0.265625 1.15625l2.359375 0q0 -0.265625 0.078125 -0.5q0.09375 -0.234375 0.296875 -0.40625q0.1875 -0.171875 0.5 -0.265625q0.328125 -0.109375 0.734375 -0.109375q0.484375 0 0.84375 0.125q0.359375 0.109375 0.609375 0.328125q0.234375 0.203125 0.34375 0.5q0.125 0.296875 0.125 0.671875l0 0.609375l-1.5 0q-1.078125 0 -1.921875 0.203125q-0.84375 0.1875 -1.421875 0.578125q-0.625 0.40625 -0.953125 1.03125q-0.3125 0.625 -0.3125 1.453125q0 0.625 0.25 1.171875q0.25 0.546875 0.71875 0.9375q0.4375 0.390625 1.0625 0.609375q0.640625 0.21875 1.40625 0.21875q0.46875 0 0.875 -0.09375q0.40625 -0.09375 0.75 -0.25q0.34375 -0.15625 0.625 -0.359375q0.28125 -0.203125 0.5 -0.4375q0.03125 0.265625 0.09375 0.515625q0.078125 0.25 0.15625 0.4375zm-2.53125 -1.671875q-0.375 0 -0.671875 -0.09375q-0.28125 -0.109375 -0.484375 -0.25q-0.1875 -0.1875 -0.296875 -0.421875q-0.09375 -0.234375 -0.09375 -0.515625q0 -0.359375 0.125 -0.640625q0.140625 -0.296875 0.40625 -0.5q0.28125 -0.234375 0.75 -0.34375q0.46875 -0.125 1.125 -0.125l1.34375 0l0 1.75q-0.125 0.21875 -0.328125 0.421875q-0.203125 0.203125 -0.484375 0.359375q-0.28125 0.15625 -0.625 0.265625q-0.34375 0.09375 -0.765625 0.09375zm13.914322 -1.015625q0 0.234375 -0.109375 0.4375q-0.109375 0.1875 -0.328125 0.34375q-0.25 0.171875 -0.640625 0.265625q-0.390625 0.09375 -0.9375 0.09375q-0.40625 0 -0.8125 -0.078125q-0.390625 -0.078125 -0.703125 -0.265625q-0.3125 -0.1875 -0.515625 -0.484375q-0.203125 -0.296875 -0.234375 -0.734375l-2.25 0q0 0.609375 0.28125 1.203125q0.296875 0.59375 0.875 1.046875q0.5625 0.484375 1.390625 0.765625q0.84375 0.28125 1.9375 0.28125q0.96875 0 1.78125 -0.21875q0.8124924 -0.21875 1.3749924 -0.609375q0.5625 -0.40625 0.859375 -0.953125q0.3125 -0.546875 0.3125 -1.203125q0 -0.6875 -0.296875 -1.1875q-0.296875 -0.5 -0.84375 -0.875q-0.53125 -0.34375 -1.2968674 -0.578125q-0.75 -0.234375 -1.640625 -0.390625q-0.640625 -0.109375 -1.0625 -0.234375q-0.40625 -0.125 -0.640625 -0.28125q-0.234375 -0.15625 -0.34375 -0.34375q-0.09375 -0.203125 -0.09375 -0.4375q0 -0.234375 0.109375 -0.4375q0.125 -0.21875 0.328125 -0.375q0.234375 -0.171875 0.59375 -0.265625q0.359375 -0.09375 0.84375 -0.09375q0.53125 0 0.921875 0.140625q0.390625 0.125 0.640625 0.359375q0.1875 0.1875 0.28125 0.421875q0.109375 0.234375 0.109375 0.5l2.3593674 0q0 -0.671875 -0.296875 -1.25q-0.296875 -0.578125 -0.859375 -1.015625q-0.546875 -0.421875 -1.3593674 -0.65625q-0.796875 -0.234375 -1.796875 -0.234375q-0.953125 0 -1.734375 0.234375q-0.765625 0.234375 -1.296875 0.65625q-0.546875 0.40625 -0.828125 0.953125q-0.28125 0.546875 -0.28125 1.171875q0 0.625 0.28125 1.109375q0.28125 0.46875 0.78125 0.828125q0.5 0.359375 1.203125 0.625q0.71875 0.25 1.59375 0.421875q0.671875 0.125 1.125 0.265625q0.453125 0.140625 0.734375 0.296875q0.265625 0.15625 0.375 0.34375q0.109375 0.1875 0.109375 0.4375zm7.1486893 -5.78125l0 -5.53125l-2.359375 0l0 14.0l2.359375 0l0 -7.125q0.15625 -0.203125 0.34375 -0.375q0.1875 -0.171875 0.421875 -0.3125q0.265625 -0.15625 0.578125 -0.21875q0.3125 -0.078125 0.671875 -0.078125q0.453125 0 0.8125 0.125q0.375 0.109375 0.625 0.375q0.25 0.25 0.375 0.640625q0.140625 0.390625 0.140625 0.9375l0 6.03125l2.359375 0l0 -6.015625q0 -1.0625 -0.265625 -1.8125q-0.25 -0.765625 -0.703125 -1.265625q-0.46875 -0.484375 -1.109375 -0.703125q-0.640625 -0.234375 -1.421875 -0.234375q-0.53125 0 -1.015625 0.15625q-0.484375 0.15625 -0.890625 0.4375q-0.265625 0.1875 -0.5 0.4375q-0.21875 0.234375 -0.421875 0.53125z" fill-rule="nonzero"/><path fill="#000000" fill-opacity="0.0" d="m240.18289 70.47423l107.055115 0l0 81.44882l-107.055115 0z" fill-rule="evenodd"/><path stroke="#ffffff" stroke-width="2.0" stroke-linejoin="round" stroke-linecap="butt" d="m240.18289 70.47423l107.055115 0l0 81.44882l-107.055115 0z" fill-rule="evenodd"/><path fill="#ffffff" d="m265.3853 95.80614l0 -1.953125l-10.515625 0l0 1.953125l4.046875 0l0 11.3125l2.375 0l0 -11.3125l4.09375 0zm2.4612122 11.3125l2.03125 0l1.140625 -5.421875l0.21875 -1.125l0.21875 1.125l1.1875 5.421875l2.03125 0l1.828125 -9.859375l-2.140625 0l-0.8125 5.921875l-0.15625 1.078125l-0.1875 -1.078125l-1.171875 -5.921875l-1.5625 0l-1.171875 5.953125l-0.1875 1.03125l-0.140625 -1.03125l-0.8125 -5.953125l-2.15625 0l1.84375 9.859375zm11.008057 -9.859375l0 1.9375l2.921875 0l0 5.984375l-2.921875 0l0 1.9375l8.078125 0l0 -1.9375l-2.78125 0l0 -7.921875l-5.296875 0zm2.734375 -2.53125q0 0.3125 0.125 0.578125q0.140625 0.25 0.390625 0.375q0.265625 0.15625 0.53125 0.1875q0.265625 0.015625 0.515625 -0.078125q0.546875 -0.046875 0.84375 -0.375q0.296875 -0.34375 0.265625 -0.84375q-0.03125 -0.5 -0.390625 -0.8125q-0.34375 -0.3125 -0.921875 -0.3125q-0.3125 0 -0.5625 0.09375q-0.25 0.09375 -0.421875 0.265625q-0.1875 0.171875 -0.28125 0.40625q-0.09375 0.234375 -0.09375 0.515625zm14.273712 9.703125q0 0.234375 -0.109375 0.4375q-0.109375 0.1875 -0.328125 0.34375q-0.25 0.171875 -0.640625 0.265625q-0.390625 0.09375 -0.9375 0.09375q-0.40625 0 -0.8125 -0.078125q-0.390625 -0.078125 -0.703125 -0.265625q-0.3125 -0.1875 -0.515625 -0.484375q-0.203125 -0.296875 -0.234375 -0.734375l-2.25 0q0 0.609375 0.28125 1.203125q0.296875 0.59375 0.875 1.046875q0.5625 0.484375 1.390625 0.765625q0.84375 0.28125 1.9375 0.28125q0.96875 0 1.78125 -0.21875q0.8125 -0.21875 1.375 -0.609375q0.5625 -0.40625 0.859375 -0.953125q0.3125 -0.546875 0.3125 -1.203125q0 -0.6875 -0.296875 -1.1875q-0.296875 -0.5 -0.84375 -0.875q-0.53125 -0.34375 -1.296875 -0.578125q-0.75 -0.234375 -1.640625 -0.390625q-0.640625 -0.109375 -1.0625 -0.234375q-0.40625 -0.125 -0.640625 -0.28125q-0.234375 -0.15625 -0.34375 -0.34375q-0.09375 -0.203125 -0.09375 -0.4375q0 -0.234375 0.109375 -0.4375q0.125 -0.21875 0.328125 -0.375q0.234375 -0.171875 0.59375 -0.265625q0.359375 -0.09375 0.84375 -0.09375q0.53125 0 0.921875 0.140625q0.390625 0.125 0.640625 0.359375q0.1875 0.1875 0.28125 0.421875q0.109375 0.234375 0.109375 0.5l2.359375 0q0 -0.671875 -0.296875 -1.25q-0.296875 -0.578125 -0.859375 -1.015625q-0.546875 -0.421875 -1.359375 -0.65625q-0.796875 -0.234375 -1.796875 -0.234375q-0.953125 0 -1.734375 0.234375q-0.765625 0.234375 -1.296875 0.65625q-0.546875 0.40625 -0.828125 0.953125q-0.28125 0.546875 -0.28125 1.171875q0 0.625 0.28125 1.109375q0.28125 0.46875 0.78125 0.828125q0.5 0.359375 1.203125 0.625q0.71875 0.25 1.59375 0.421875q0.671875 0.125 1.125 0.265625q0.453125 0.140625 0.734375 0.296875q0.265625 0.15625 0.375 0.34375q0.109375 0.1875 0.109375 0.4375zm9.304932 -9.578125l-2.359375 0l0 2.40625l-2.328125 0l0 1.75l2.328125 0l0 4.671875q0 0.953125 0.25 1.640625q0.25 0.6875 0.71875 1.125q0.453125 0.4375 1.09375 0.65625q0.640625 0.203125 1.421875 0.203125q0.40625 0 0.828125 -0.046875q0.4375 -0.03125 0.828125 -0.109375q0.390625 -0.0625 0.71875 -0.171875q0.34375 -0.109375 0.609375 -0.265625l-0.25 -1.625q-0.15625 0.046875 -0.40625 0.09375q-0.234375 0.046875 -0.515625 0.078125q-0.28125 0.046875 -0.59375 0.078125q-0.296875 0.03125 -0.578125 0.03125q-0.390625 0 -0.71875 -0.09375q-0.328125 -0.09375 -0.5625 -0.3125q-0.234375 -0.21875 -0.359375 -0.578125q-0.125 -0.359375 -0.125 -0.90625l0 -4.46875l3.6875 0l0 -1.75l-3.6875 0l0 -2.40625zm11.383087 12.453125q1.421875 0 2.453125 -0.5625q1.03125 -0.5625 1.515625 -1.265625l-1.203125 -1.25q-0.453125 0.578125 -1.15625 0.875q-0.703125 0.296875 -1.46875 0.296875q-0.5625 0 -1.03125 -0.171875q-0.46875 -0.1875 -0.84375 -0.515625q-0.34375 -0.3125 -0.546875 -0.71875q-0.203125 -0.40625 -0.328125 -1.015625l0 -0.046875l6.78125 0l0 -1.0q0 -1.078125 -0.296875 -1.96875q-0.296875 -0.890625 -0.859375 -1.53125q-0.578125 -0.640625 -1.40625 -0.984375q-0.8125 -0.359375 -1.875 -0.359375q-1.0 0 -1.859375 0.375q-0.859375 0.359375 -1.5 1.015625q-0.640625 0.671875 -1.0 1.609375q-0.359375 0.9375 -0.359375 2.078125l0 0.375q0 1.0 0.359375 1.875q0.359375 0.859375 1.015625 1.5q0.65625 0.640625 1.5625 1.015625q0.921875 0.375 2.046875 0.375zm-0.296875 -8.3125q0.53125 0 0.90625 0.171875q0.390625 0.171875 0.671875 0.453125q0.265625 0.28125 0.40625 0.671875q0.15625 0.390625 0.15625 0.796875l0 0.1875l-4.390625 0q0.09375 -0.53125 0.28125 -0.953125q0.203125 -0.421875 0.484375 -0.71875q0.296875 -0.296875 0.671875 -0.453125q0.375 -0.15625 0.8125 -0.15625zm6.5236816 3.125l0 0.1875q0 1.0625 0.265625 1.984375q0.265625 0.921875 0.765625 1.59375q0.5 0.65625 1.21875 1.046875q0.71875 0.375 1.609375 0.375q0.84375 0 1.484375 -0.3125q0.640625 -0.328125 1.109375 -0.90625l0.125 1.03125l2.125 0l0 -14.0l-2.359375 0l0 5.046875q-0.46875 -0.515625 -1.078125 -0.796875q-0.59375 -0.28125 -1.390625 -0.28125q-0.90625 0 -1.625 0.359375q-0.71875 0.359375 -1.21875 1.03125q-0.5 0.65625 -0.765625 1.59375q-0.265625 0.921875 -0.265625 2.046875zm2.34375 0.1875l0 -0.1875q0 -0.640625 0.109375 -1.203125q0.125 -0.578125 0.390625 -1.0q0.25 -0.421875 0.65625 -0.65625q0.40625 -0.25 0.984375 -0.25q0.671875 0 1.125 0.3125q0.46875 0.296875 0.734375 0.8125l0 4.109375q-0.265625 0.53125 -0.734375 0.828125q-0.453125 0.296875 -1.15625 0.296875q-0.5625 0 -0.96875 -0.234375q-0.40625 -0.234375 -0.640625 -0.65625q-0.265625 -0.421875 -0.390625 -0.96875q-0.109375 -0.5625 -0.109375 -1.203125z" fill-rule="nonzero"/><path fill="#ffffff" d="m262.6978 125.68114q0 0.390625 -0.171875 0.71875q-0.15625 0.3125 -0.453125 0.53125q-0.296875 0.21875 -0.703125 0.34375q-0.40625 0.109375 -0.921875 0.109375q-0.578125 0 -1.078125 -0.125q-0.484375 -0.140625 -0.828125 -0.421875q-0.359375 -0.296875 -0.5625 -0.734375q-0.203125 -0.4375 -0.234375 -1.03125l-2.359375 0q0.015625 0.984375 0.40625 1.734375q0.390625 0.75 1.046875 1.3125q0.71875 0.578125 1.671875 0.875q0.953125 0.296875 1.9375 0.296875q0.96875 0 1.8125 -0.234375q0.84375 -0.234375 1.453125 -0.703125q0.625 -0.46875 0.984375 -1.140625q0.375 -0.671875 0.375 -1.546875q0 -1.0 -0.453125 -1.75q-0.453125 -0.75 -1.1875 -1.296875q-0.546875 -0.390625 -1.1875 -0.671875q-0.640625 -0.28125 -1.34375 -0.484375q-0.59375 -0.171875 -1.109375 -0.359375q-0.5 -0.203125 -0.859375 -0.453125q-0.375 -0.234375 -0.59375 -0.5625q-0.203125 -0.328125 -0.203125 -0.75q0 -0.390625 0.15625 -0.703125q0.15625 -0.328125 0.453125 -0.5625q0.296875 -0.234375 0.703125 -0.359375q0.40625 -0.125 0.90625 -0.125q0.5625 0 0.984375 0.15625q0.4375 0.15625 0.734375 0.4375q0.28125 0.28125 0.4375 0.6875q0.171875 0.390625 0.203125 0.859375l2.328125 0q0 -0.890625 -0.359375 -1.640625q-0.34375 -0.75 -0.96875 -1.28125q-0.609375 -0.546875 -1.46875 -0.84375q-0.84375 -0.296875 -1.859375 -0.296875q-0.953125 0 -1.796875 0.265625q-0.828125 0.25 -1.453125 0.734375q-0.625 0.46875 -0.984375 1.15625q-0.359375 0.6875 -0.359375 1.515625q0 0.765625 0.28125 1.390625q0.296875 0.625 0.84375 1.125q0.546875 0.5 1.359375 0.90625q0.8125 0.40625 1.828125 0.6875q0.65625 0.171875 1.140625 0.390625q0.5 0.21875 0.828125 0.484375q0.3125 0.28125 0.46875 0.625q0.15625 0.328125 0.15625 0.734375zm9.070587 3.625q1.421875 0 2.453125 -0.5625q1.03125 -0.5625 1.515625 -1.265625l-1.203125 -1.25q-0.453125 0.578125 -1.15625 0.875q-0.703125 0.296875 -1.46875 0.296875q-0.5625 0 -1.03125 -0.171875q-0.46875 -0.1875 -0.84375 -0.515625q-0.34375 -0.3125 -0.546875 -0.71875q-0.203125 -0.40625 -0.328125 -1.015625l0 -0.046875l6.78125 0l0 -1.0q0 -1.078125 -0.296875 -1.96875q-0.296875 -0.890625 -0.859375 -1.53125q-0.578125 -0.640625 -1.40625 -0.984375q-0.8125 -0.359375 -1.875 -0.359375q-1.0 0 -1.859375 0.375q-0.859375 0.359375 -1.5 1.015625q-0.640625 0.671875 -1.0 1.609375q-0.359375 0.9375 -0.359375 2.078125l0 0.375q0 1.0 0.359375 1.875q0.359375 0.859375 1.015625 1.5q0.65625 0.640625 1.5625 1.015625q0.921875 0.375 2.046875 0.375zm-0.296875 -8.3125q0.53125 0 0.90625 0.171875q0.390625 0.171875 0.671875 0.453125q0.265625 0.28125 0.40625 0.671875q0.15625 0.390625 0.15625 0.796875l0 0.1875l-4.390625 0q0.09375 -0.53125 0.28125 -0.953125q0.203125 -0.421875 0.484375 -0.71875q0.296875 -0.296875 0.671875 -0.453125q0.375 -0.15625 0.8125 -0.15625zm13.742432 -1.90625q-1.015625 0 -1.859375 0.484375q-0.828125 0.46875 -1.421875 1.296875l-0.03125 -0.234375l-0.09375 -1.375l-2.1875 0l0 9.859375l2.359375 0l0 -6.0q0.15625 -0.4375 0.421875 -0.75q0.265625 -0.328125 0.625 -0.53125q0.328125 -0.203125 0.734375 -0.296875q0.421875 -0.109375 0.9375 -0.109375q0.484375 0 0.984375 0.0625q0.515625 0.0625 1.015625 0.171875l0.34375 -2.34375q-0.296875 -0.09375 -0.796875 -0.15625q-0.484375 -0.078125 -1.03125 -0.078125zm7.429962 10.03125l2.140625 0l3.796875 -9.859375l-2.4375 0l-2.28125 7.046875l-0.140625 0.6875l-0.140625 -0.6875l-2.3125 -7.046875l-2.453125 0l3.828125 9.859375zm8.601807 -9.859375l0 1.9375l2.921875 0l0 5.984375l-2.921875 0l0 1.9375l8.078125 0l0 -1.9375l-2.78125 0l0 -7.921875l-5.296875 0zm2.734375 -2.53125q0 0.3125 0.125 0.578125q0.140625 0.25 0.390625 0.375q0.265625 0.15625 0.53125 0.1875q0.265625 0.015625 0.515625 -0.078125q0.546875 -0.046875 0.84375 -0.375q0.296875 -0.34375 0.265625 -0.84375q-0.03125 -0.5 -0.390625 -0.8125q-0.34375 -0.3125 -0.921875 -0.3125q-0.3125 0 -0.5625 0.09375q-0.25 0.09375 -0.421875 0.265625q-0.1875 0.171875 -0.28125 0.40625q-0.09375 0.234375 -0.09375 0.515625zm12.195587 10.6875q-0.640625 0 -1.0625 -0.25q-0.421875 -0.265625 -0.671875 -0.703125q-0.265625 -0.421875 -0.375 -0.96875q-0.09375 -0.5625 -0.09375 -1.140625l0 -0.296875q0 -0.578125 0.109375 -1.125q0.109375 -0.5625 0.359375 -0.984375q0.25 -0.4375 0.671875 -0.6875q0.421875 -0.265625 1.0625 -0.265625q0.4375 0 0.796875 0.15625q0.359375 0.140625 0.625 0.390625q0.25 0.25 0.390625 0.59375q0.15625 0.328125 0.140625 0.71875l2.21875 0q0.015625 -0.84375 -0.296875 -1.546875q-0.296875 -0.703125 -0.859375 -1.1875q-0.546875 -0.484375 -1.3125 -0.75q-0.765625 -0.28125 -1.671875 -0.28125q-1.140625 0 -2.0 0.390625q-0.859375 0.390625 -1.421875 1.0625q-0.59375 0.6875 -0.890625 1.59375q-0.28125 0.890625 -0.28125 1.921875l0 0.296875q0 1.015625 0.296875 1.921875q0.296875 0.90625 0.875 1.578125q0.5625 0.671875 1.421875 1.0625q0.875 0.390625 2.015625 0.390625q0.828125 0 1.578125 -0.265625q0.75 -0.265625 1.328125 -0.734375q0.5625 -0.46875 0.890625 -1.109375q0.34375 -0.640625 0.328125 -1.390625l-2.21875 0q0.015625 0.359375 -0.140625 0.65625q-0.15625 0.296875 -0.4375 0.5q-0.265625 0.21875 -0.625 0.34375q-0.359375 0.109375 -0.75 0.109375zm11.570557 1.890625q1.421875 0 2.453125 -0.5625q1.03125 -0.5625 1.515625 -1.265625l-1.203125 -1.25q-0.453125 0.578125 -1.15625 0.875q-0.703125 0.296875 -1.46875 0.296875q-0.5625 0 -1.03125 -0.171875q-0.46875 -0.1875 -0.84375 -0.515625q-0.34375 -0.3125 -0.546875 -0.71875q-0.203125 -0.40625 -0.328125 -1.015625l0 -0.046875l6.78125 0l0 -1.0q0 -1.078125 -0.296875 -1.96875q-0.296875 -0.890625 -0.859375 -1.53125q-0.578125 -0.640625 -1.40625 -0.984375q-0.8125 -0.359375 -1.875 -0.359375q-1.0 0 -1.859375 0.375q-0.859375 0.359375 -1.5 1.015625q-0.640625 0.671875 -1.0 1.609375q-0.359375 0.9375 -0.359375 2.078125l0 0.375q0 1.0 0.359375 1.875q0.359375 0.859375 1.015625 1.5q0.65625 0.640625 1.5625 1.015625q0.921875 0.375 2.046875 0.375zm-0.296875 -8.3125q0.53125 0 0.90625 0.171875q0.390625 0.171875 0.671875 0.453125q0.265625 0.28125 0.40625 0.671875q0.15625 0.390625 0.15625 0.796875l0 0.1875l-4.390625 0q0.09375 -0.53125 0.28125 -0.953125q0.203125 -0.421875 0.484375 -0.71875q0.296875 -0.296875 0.671875 -0.453125q0.375 -0.15625 0.8125 -0.15625z" fill-rule="nonzero"/><path fill="#000000" fill-opacity="0.0" d="m412.3666 70.47423l78.74017 0l0 57.16535l-78.74017 0z" fill-rule="evenodd"/><path stroke="#ffffff" stroke-width="2.0" stroke-linejoin="round" stroke-linecap="butt" d="m412.3666 70.47423l78.74017 0l0 57.16535l-78.74017 0z" fill-rule="evenodd"/><path fill="#ffffff" d="m444.94333 81.71128l-2.34375 0l-0.015625 8.828125q0 0.640625 -0.140625 1.15625q-0.140625 0.5 -0.40625 0.84375q-0.265625 0.328125 -0.65625 0.515625q-0.390625 0.171875 -0.890625 0.171875q-0.46875 0 -0.84375 -0.171875q-0.359375 -0.171875 -0.609375 -0.484375q-0.265625 -0.359375 -0.390625 -0.859375q-0.125 -0.515625 -0.140625 -1.171875l-0.015625 -8.828125l-2.359375 0l-0.015625 8.828125q0 1.078125 0.3125 1.9375q0.3125 0.859375 0.890625 1.453125q0.578125 0.59375 1.375 0.921875q0.8125 0.3125 1.796875 0.3125q1.046875 0 1.875 -0.3125q0.828125 -0.328125 1.390625 -0.9375q0.578125 -0.59375 0.890625 -1.4375q0.3125 -0.859375 0.3125 -1.9375l-0.015625 -8.828125zm9.367462 9.828125q0 0.390625 -0.171875 0.71875q-0.15625 0.3125 -0.453125 0.53125q-0.296875 0.21875 -0.703125 0.34375q-0.40625 0.109375 -0.921875 0.109375q-0.578125 0 -1.078125 -0.125q-0.484375 -0.140625 -0.828125 -0.421875q-0.359375 -0.296875 -0.5625 -0.734375q-0.203125 -0.4375 -0.234375 -1.03125l-2.359375 0q0.015625 0.984375 0.40625 1.734375q0.390625 0.75 1.046875 1.3125q0.71875 0.578125 1.671875 0.875q0.953125 0.296875 1.9375 0.296875q0.96875 0 1.8125 -0.234375q0.84375 -0.234375 1.453125 -0.703125q0.625 -0.46875 0.984375 -1.140625q0.375 -0.671875 0.375 -1.546875q0 -1.0 -0.453125 -1.75q-0.453125 -0.75 -1.1875 -1.296875q-0.546875 -0.390625 -1.1875 -0.671875q-0.640625 -0.28125 -1.34375 -0.484375q-0.59375 -0.171875 -1.109375 -0.359375q-0.5 -0.203125 -0.859375 -0.453125q-0.375 -0.234375 -0.59375 -0.5625q-0.203125 -0.328125 -0.203125 -0.75q0 -0.390625 0.15625 -0.703125q0.15625 -0.328125 0.453125 -0.5625q0.296875 -0.234375 0.703125 -0.359375q0.40625 -0.125 0.90625 -0.125q0.5625 0 0.984375 0.15625q0.4375 0.15625 0.734375 0.4375q0.28125 0.28125 0.4375 0.6875q0.171875 0.390625 0.203125 0.859375l2.328125 0q0 -0.890625 -0.359375 -1.640625q-0.34375 -0.75 -0.96875 -1.28125q-0.609375 -0.546875 -1.46875 -0.84375q-0.84375 -0.296875 -1.859375 -0.296875q-0.953125 0 -1.796875 0.265625q-0.828125 0.25 -1.453125 0.734375q-0.625 0.46875 -0.984375 1.15625q-0.359375 0.6875 -0.359375 1.515625q0 0.765625 0.28125 1.390625q0.296875 0.625 0.84375 1.125q0.546875 0.5 1.359375 0.90625q0.8125 0.40625 1.828125 0.6875q0.65625 0.171875 1.140625 0.390625q0.5 0.21875 0.828125 0.484375q0.3125 0.28125 0.46875 0.625q0.15625 0.328125 0.15625 0.734375zm4.2736816 3.4375l4.71875 0q1.046875 0 1.90625 -0.25q0.859375 -0.25 1.46875 -0.734375q0.609375 -0.484375 0.9375 -1.203125q0.34375 -0.734375 0.34375 -1.6875q0 -0.53125 -0.140625 -1.0q-0.140625 -0.484375 -0.4375 -0.875q-0.265625 -0.375 -0.671875 -0.65625q-0.40625 -0.296875 -1.015625 -0.46875l0 -0.015625q0.359375 -0.140625 0.640625 -0.328125q0.296875 -0.203125 0.53125 -0.4375q0.375 -0.390625 0.5625 -0.90625q0.203125 -0.515625 0.203125 -1.09375q0.015625 -0.921875 -0.328125 -1.59375q-0.34375 -0.6875 -0.984375 -1.140625q-0.625 -0.4375 -1.5 -0.65625q-0.859375 -0.21875 -1.875 -0.21875l-4.359375 0l0 13.265625zm2.390625 -5.921875l2.453125 0q0.53125 0.015625 0.9375 0.15625q0.40625 0.140625 0.671875 0.40625q0.28125 0.265625 0.40625 0.640625q0.140625 0.359375 0.125 0.828125q0 0.453125 -0.171875 0.828125q-0.15625 0.359375 -0.453125 0.625q-0.296875 0.234375 -0.703125 0.375q-0.40625 0.125 -0.921875 0.125l-2.34375 0l0 -3.984375zm0 -1.75l0 -3.640625l1.984375 0q0.59375 0 1.046875 0.140625q0.46875 0.125 0.765625 0.390625q0.234375 0.21875 0.359375 0.546875q0.125 0.3125 0.125 0.75q0 0.40625 -0.140625 0.734375q-0.140625 0.3125 -0.390625 0.53125q-0.296875 0.265625 -0.75 0.40625q-0.4375 0.125 -1.0 0.140625l-2.0 0z" fill-rule="nonzero"/><path fill="#ffffff" d="m431.91965 113.539406q0 0.390625 -0.171875 0.71875q-0.15625 0.3125 -0.453125 0.53125q-0.296875 0.21875 -0.703125 0.34375q-0.40625 0.109375 -0.921875 0.109375q-0.578125 0 -1.078125 -0.125q-0.484375 -0.140625 -0.828125 -0.421875q-0.359375 -0.296875 -0.5625 -0.734375q-0.203125 -0.4375 -0.234375 -1.03125l-2.359375 0q0.015625 0.984375 0.40625 1.734375q0.390625 0.75 1.046875 1.3125q0.71875 0.578125 1.671875 0.875q0.953125 0.296875 1.9375 0.296875q0.96875 0 1.8125 -0.234375q0.84375 -0.234375 1.453125 -0.703125q0.625 -0.46875 0.984375 -1.140625q0.375 -0.671875 0.375 -1.546875q0 -1.0 -0.453125 -1.75q-0.453125 -0.75 -1.1875 -1.296875q-0.546875 -0.390625 -1.1875 -0.671875q-0.640625 -0.28125 -1.34375 -0.484375q-0.59375 -0.171875 -1.109375 -0.359375q-0.5 -0.203125 -0.859375 -0.453125q-0.375 -0.234375 -0.59375 -0.5625q-0.203125 -0.328125 -0.203125 -0.75q0 -0.390625 0.15625 -0.703125q0.15625 -0.328125 0.453125 -0.5625q0.296875 -0.234375 0.703125 -0.359375q0.40625 -0.125 0.90625 -0.125q0.5625 0 0.984375 0.15625q0.4375 0.15625 0.734375 0.4375q0.28125 0.28125 0.4375 0.6875q0.171875 0.390625 0.203125 0.859375l2.328125 0q0 -0.890625 -0.359375 -1.640625q-0.34375 -0.75 -0.96875 -1.28125q-0.609375 -0.546875 -1.46875 -0.84375q-0.84375 -0.296875 -1.859375 -0.296875q-0.953125 0 -1.796875 0.265625q-0.828125 0.25 -1.453125 0.734375q-0.625 0.46875 -0.984375 1.15625q-0.359375 0.6875 -0.359375 1.515625q0 0.765625 0.28125 1.390625q0.296875 0.625 0.84375 1.125q0.546875 0.5 1.359375 0.90625q0.8125 0.40625 1.828125 0.6875q0.65625 0.171875 1.140625 0.390625q0.5 0.21875 0.828125 0.484375q0.3125 0.28125 0.46875 0.625q0.15625 0.328125 0.15625 0.734375zm8.883057 -8.828125l-2.359375 0l0 2.40625l-2.328125 0l0 1.75l2.328125 0l0 4.671875q0 0.953125 0.25 1.640625q0.25 0.6875 0.71875 1.125q0.453125 0.4375 1.09375 0.65625q0.640625 0.203125 1.421875 0.203125q0.40625 0 0.828125 -0.046875q0.4375 -0.03125 0.828125 -0.109375q0.390625 -0.0625 0.71875 -0.171875q0.34375 -0.109375 0.609375 -0.265625l-0.25 -1.625q-0.15625 0.046875 -0.40625 0.09375q-0.234375 0.046875 -0.515625 0.078125q-0.28125 0.046875 -0.59375 0.078125q-0.296875 0.03125 -0.578125 0.03125q-0.390625 0 -0.71875 -0.09375q-0.328125 -0.09375 -0.5625 -0.3125q-0.234375 -0.21875 -0.359375 -0.578125q-0.125 -0.359375 -0.125 -0.90625l0 -4.46875l3.6875 0l0 -1.75l-3.6875 0l0 -2.40625zm12.898712 12.265625l2.40625 0l0 -0.15625q-0.1875 -0.375 -0.28125 -0.890625q-0.09375 -0.53125 -0.09375 -1.265625l0 -4.296875q0 -0.859375 -0.328125 -1.5q-0.3125 -0.640625 -0.859375 -1.078125q-0.5625 -0.421875 -1.328125 -0.625q-0.75 -0.21875 -1.625 -0.21875q-0.984375 0 -1.75 0.25q-0.75 0.25 -1.28125 0.671875q-0.53125 0.421875 -0.8125 0.984375q-0.265625 0.546875 -0.265625 1.15625l2.359375 0q0 -0.265625 0.078125 -0.5q0.09375 -0.234375 0.296875 -0.40625q0.1875 -0.171875 0.5 -0.265625q0.328125 -0.109375 0.734375 -0.109375q0.484375 0 0.84375 0.125q0.359375 0.109375 0.609375 0.328125q0.234375 0.203125 0.34375 0.5q0.125 0.296875 0.125 0.671875l0 0.609375l-1.5 0q-1.078125 0 -1.921875 0.203125q-0.84375 0.1875 -1.421875 0.578125q-0.625 0.40625 -0.953125 1.03125q-0.3125 0.625 -0.3125 1.453125q0 0.625 0.25 1.171875q0.25 0.546875 0.71875 0.9375q0.4375 0.390625 1.0625 0.609375q0.640625 0.21875 1.40625 0.21875q0.46875 0 0.875 -0.09375q0.40625 -0.09375 0.75 -0.25q0.34375 -0.15625 0.625 -0.359375q0.28125 -0.203125 0.5 -0.4375q0.03125 0.265625 0.09375 0.515625q0.078125 0.25 0.15625 0.4375zm-2.53125 -1.671875q-0.375 0 -0.671875 -0.09375q-0.28125 -0.109375 -0.484375 -0.25q-0.1875 -0.1875 -0.296875 -0.421875q-0.09375 -0.234375 -0.09375 -0.515625q0 -0.359375 0.125 -0.640625q0.140625 -0.296875 0.40625 -0.5q0.28125 -0.234375 0.75 -0.34375q0.46875 -0.125 1.125 -0.125l1.34375 0l0 1.75q-0.125 0.21875 -0.328125 0.421875q-0.203125 0.203125 -0.484375 0.359375q-0.28125 0.15625 -0.625 0.265625q-0.34375 0.09375 -0.765625 0.09375zm11.836182 -0.03125q-0.640625 0 -1.0625 -0.25q-0.421875 -0.265625 -0.671875 -0.703125q-0.265625 -0.421875 -0.375 -0.96875q-0.09375 -0.5625 -0.09375 -1.140625l0 -0.296875q0 -0.578125 0.109375 -1.125q0.109375 -0.5625 0.359375 -0.984375q0.25 -0.4375 0.671875 -0.6875q0.421875 -0.265625 1.0625 -0.265625q0.4375 0 0.796875 0.15625q0.359375 0.140625 0.625 0.390625q0.25 0.25 0.390625 0.59375q0.15625 0.328125 0.140625 0.71875l2.21875 0q0.015625 -0.84375 -0.296875 -1.546875q-0.296875 -0.703125 -0.859375 -1.1875q-0.546875 -0.484375 -1.3125 -0.75q-0.765625 -0.28125 -1.671875 -0.28125q-1.140625 0 -2.0 0.390625q-0.859375 0.390625 -1.421875 1.0625q-0.59375 0.6875 -0.890625 1.59375q-0.28125 0.890625 -0.28125 1.921875l0 0.296875q0 1.015625 0.296875 1.921875q0.296875 0.90625 0.875 1.578125q0.5625 0.671875 1.421875 1.0625q0.875 0.390625 2.015625 0.390625q0.828125 0 1.578125 -0.265625q0.75 -0.265625 1.328125 -0.734375q0.5625 -0.46875 0.890625 -1.109375q0.34375 -0.640625 0.328125 -1.390625l-2.21875 0q0.015625 0.359375 -0.140625 0.65625q-0.15625 0.296875 -0.4375 0.5q-0.265625 0.21875 -0.625 0.34375q-0.359375 0.109375 -0.75 0.109375zm10.429962 -2.484375l2.953125 4.1875l2.90625 0l-4.3125 -5.75l3.78125 -4.109375l-2.84375 0l-2.828125 3.046875l-0.84375 0.9375l0 -8.125l-2.34375 0l0 14.0l2.34375 0l0 -3.09375l1.1875 -1.09375z" fill-rule="nonzero"/><path fill="#000000" fill-opacity="0.0" d="m412.3666 127.63958l78.74017 0l0 24.28347l-78.74017 0z" fill-rule="evenodd"/><path stroke="#ffffff" stroke-width="2.0" stroke-linejoin="round" stroke-linecap="butt" d="m412.3666 127.63958l78.74017 0l0 24.28347l-78.74017 0z" fill-rule="evenodd"/><path fill="#ffffff" d="m443.1152 143.26381q0 0.390625 -0.171875 0.71875q-0.15625 0.3125 -0.453125 0.53125q-0.296875 0.21875 -0.703125 0.34375q-0.40625 0.109375 -0.921875 0.109375q-0.578125 0 -1.078125 -0.125q-0.484375 -0.140625 -0.828125 -0.421875q-0.359375 -0.296875 -0.5625 -0.734375q-0.203125 -0.4375 -0.234375 -1.03125l-2.359375 0q0.015625 0.984375 0.40625 1.734375q0.390625 0.75 1.046875 1.3125q0.71875 0.578125 1.671875 0.875q0.953125 0.296875 1.9375 0.296875q0.96875 0 1.8125 -0.234375q0.84375 -0.234375 1.453125 -0.703125q0.625 -0.46875 0.984375 -1.140625q0.375 -0.671875 0.375 -1.546875q0 -1.0 -0.453125 -1.75q-0.453125 -0.75 -1.1875 -1.296875q-0.546875 -0.390625 -1.1875 -0.671875q-0.640625 -0.28125 -1.34375 -0.484375q-0.59375 -0.171875 -1.109375 -0.359375q-0.5 -0.203125 -0.859375 -0.453125q-0.375 -0.234375 -0.59375 -0.5625q-0.203125 -0.328125 -0.203125 -0.75q0 -0.390625 0.15625 -0.703125q0.15625 -0.328125 0.453125 -0.5625q0.296875 -0.234375 0.703125 -0.359375q0.40625 -0.125 0.90625 -0.125q0.5625 0 0.984375 0.15625q0.4375 0.15625 0.734375 0.4375q0.28125 0.28125 0.4375 0.6875q0.171875 0.390625 0.203125 0.859375l2.328125 0q0 -0.890625 -0.359375 -1.640625q-0.34375 -0.75 -0.96875 -1.28125q-0.609375 -0.546875 -1.46875 -0.84375q-0.84375 -0.296875 -1.859375 -0.296875q-0.953125 0 -1.796875 0.265625q-0.828125 0.25 -1.453125 0.734375q-0.625 0.46875 -0.984375 1.15625q-0.359375 0.6875 -0.359375 1.515625q0 0.765625 0.28125 1.390625q0.296875 0.625 0.84375 1.125q0.546875 0.5 1.359375 0.90625q0.8125 0.40625 1.828125 0.6875q0.65625 0.171875 1.140625 0.390625q0.5 0.21875 0.828125 0.484375q0.3125 0.28125 0.46875 0.625q0.15625 0.328125 0.15625 0.734375zm11.195587 0q0 0.390625 -0.171875 0.71875q-0.15625 0.3125 -0.453125 0.53125q-0.296875 0.21875 -0.703125 0.34375q-0.40625 0.109375 -0.921875 0.109375q-0.578125 0 -1.078125 -0.125q-0.484375 -0.140625 -0.828125 -0.421875q-0.359375 -0.296875 -0.5625 -0.734375q-0.203125 -0.4375 -0.234375 -1.03125l-2.359375 0q0.015625 0.984375 0.40625 1.734375q0.390625 0.75 1.046875 1.3125q0.71875 0.578125 1.671875 0.875q0.953125 0.296875 1.9375 0.296875q0.96875 0 1.8125 -0.234375q0.84375 -0.234375 1.453125 -0.703125q0.625 -0.46875 0.984375 -1.140625q0.375 -0.671875 0.375 -1.546875q0 -1.0 -0.453125 -1.75q-0.453125 -0.75 -1.1875 -1.296875q-0.546875 -0.390625 -1.1875 -0.671875q-0.640625 -0.28125 -1.34375 -0.484375q-0.59375 -0.171875 -1.109375 -0.359375q-0.5 -0.203125 -0.859375 -0.453125q-0.375 -0.234375 -0.59375 -0.5625q-0.203125 -0.328125 -0.203125 -0.75q0 -0.390625 0.15625 -0.703125q0.15625 -0.328125 0.453125 -0.5625q0.296875 -0.234375 0.703125 -0.359375q0.40625 -0.125 0.90625 -0.125q0.5625 0 0.984375 0.15625q0.4375 0.15625 0.734375 0.4375q0.28125 0.28125 0.4375 0.6875q0.171875 0.390625 0.203125 0.859375l2.328125 0q0 -0.890625 -0.359375 -1.640625q-0.34375 -0.75 -0.96875 -1.28125q-0.609375 -0.546875 -1.46875 -0.84375q-0.84375 -0.296875 -1.859375 -0.296875q-0.953125 0 -1.796875 0.265625q-0.828125 0.25 -1.453125 0.734375q-0.625 0.46875 -0.984375 1.15625q-0.359375 0.6875 -0.359375 1.515625q0 0.765625 0.28125 1.390625q0.296875 0.625 0.84375 1.125q0.546875 0.5 1.359375 0.90625q0.8125 0.40625 1.828125 0.6875q0.65625 0.171875 1.140625 0.390625q0.5 0.21875 0.828125 0.484375q0.3125 0.28125 0.46875 0.625q0.15625 0.328125 0.15625 0.734375zm6.8674316 1.5l0 -11.328125l-2.390625 0l0 13.265625l8.65625 0l0 -1.9375l-6.265625 0z" fill-rule="nonzero"/><path fill="#000000" fill-opacity="0.0" d="m441.61334 172.78131l78.74017 0l0 24.283463l-78.74017 0z" fill-rule="evenodd"/><path stroke="#ffffff" stroke-width="2.0" stroke-linejoin="round" stroke-linecap="butt" d="m441.61334 172.78131l78.74017 0l0 24.283463l-78.74017 0z" fill-rule="evenodd"/><path fill="#ffffff" d="m456.6976 183.3743l0 -5.53125l-2.359375 0l0 14.0l2.359375 0l0 -7.125q0.15625 -0.203125 0.34375 -0.375q0.1875 -0.171875 0.421875 -0.3125q0.265625 -0.15625 0.578125 -0.21875q0.3125 -0.078125 0.671875 -0.078125q0.453125 0 0.8125 0.125q0.375 0.109375 0.625 0.375q0.25 0.25 0.375 0.640625q0.140625 0.390625 0.140625 0.9375l0 6.03125l2.359375 0l0 -6.015625q0 -1.0625 -0.265625 -1.8125q-0.25 -0.765625 -0.703125 -1.265625q-0.46875 -0.484375 -1.109375 -0.703125q-0.640625 -0.234375 -1.421875 -0.234375q-0.53125 0 -1.015625 0.15625q-0.484375 0.15625 -0.890625 0.4375q-0.265625 0.1875 -0.5 0.4375q-0.21875 0.234375 -0.421875 0.53125zm13.351837 -3.796875l-2.359375 0l0 2.40625l-2.328125 0l0 1.75l2.328125 0l0 4.671875q0 0.953125 0.25 1.640625q0.25 0.6875 0.71875 1.125q0.453125 0.4375 1.09375 0.65625q0.640625 0.203125 1.421875 0.203125q0.40625 0 0.828125 -0.046875q0.4375 -0.03125 0.828125 -0.109375q0.390625 -0.0625 0.71875 -0.171875q0.34375 -0.109375 0.609375 -0.265625l-0.25 -1.625q-0.15625 0.046875 -0.40625 0.09375q-0.234375 0.046875 -0.515625 0.078125q-0.28125 0.046875 -0.59375 0.078125q-0.296875 0.03125 -0.578125 0.03125q-0.390625 0 -0.71875 -0.09375q-0.328125 -0.09375 -0.5625 -0.3125q-0.234375 -0.21875 -0.359375 -0.578125q-0.125 -0.359375 -0.125 -0.90625l0 -4.46875l3.6875 0l0 -1.75l-3.6875 0l0 -2.40625zm11.195557 0l-2.359375 0l0 2.40625l-2.328125 0l0 1.75l2.328125 0l0 4.671875q0 0.953125 0.25 1.640625q0.25 0.6875 0.71875 1.125q0.453125 0.4375 1.09375 0.65625q0.640625 0.203125 1.421875 0.203125q0.40625 0 0.828125 -0.046875q0.4375 -0.03125 0.828125 -0.109375q0.390625 -0.0625 0.71875 -0.171875q0.34375 -0.109375 0.609375 -0.265625l-0.25 -1.625q-0.15625 0.046875 -0.40625 0.09375q-0.234375 0.046875 -0.515625 0.078125q-0.28125 0.046875 -0.59375 0.078125q-0.296875 0.03125 -0.578125 0.03125q-0.390625 0 -0.71875 -0.09375q-0.328125 -0.09375 -0.5625 -0.3125q-0.234375 -0.21875 -0.359375 -0.578125q-0.125 -0.359375 -0.125 -0.90625l0 -4.46875l3.6875 0l0 -1.75l-3.6875 0l0 -2.40625zm6.711212 16.0625l2.34375 0l0 -4.671875q0.1875 0.1875 0.375 0.359375q0.203125 0.15625 0.421875 0.28125q0.359375 0.203125 0.78125 0.3125q0.4375 0.109375 0.9375 0.109375q0.9375 0 1.65625 -0.375q0.71875 -0.390625 1.203125 -1.0625q0.484375 -0.671875 0.734375 -1.59375q0.265625 -0.921875 0.265625 -1.984375l0 -0.203125q0 -1.109375 -0.265625 -2.03125q-0.25 -0.921875 -0.734375 -1.59375q-0.5 -0.65625 -1.21875 -1.015625q-0.71875 -0.359375 -1.65625 -0.359375q-0.46875 0 -0.890625 0.09375q-0.40625 0.09375 -0.75 0.28125q-0.265625 0.140625 -0.515625 0.34375q-0.234375 0.1875 -0.421875 0.453125l-0.09375 -1.0l-2.171875 0l0 13.65625zm6.359375 -8.828125l0 0.1875q0 0.640625 -0.125 1.21875q-0.109375 0.5625 -0.375 0.984375q-0.25 0.421875 -0.65625 0.671875q-0.40625 0.25 -0.96875 0.25q-0.359375 0 -0.65625 -0.078125q-0.296875 -0.078125 -0.515625 -0.203125q-0.234375 -0.15625 -0.40625 -0.34375q-0.171875 -0.203125 -0.3125 -0.453125l0 -4.25q0.140625 -0.265625 0.328125 -0.46875q0.203125 -0.203125 0.4375 -0.34375q0.21875 -0.125 0.484375 -0.1875q0.28125 -0.0625 0.609375 -0.0625q0.578125 0 0.984375 0.234375q0.40625 0.234375 0.671875 0.65625q0.25 0.421875 0.375 0.984375q0.125 0.5625 0.125 1.203125zm4.5393066 0.03125l0 0.1875q0 1.0625 0.265625 1.984375q0.265625 0.921875 0.765625 1.59375q0.5 0.65625 1.21875 1.046875q0.71875 0.375 1.609375 0.375q0.84375 0 1.484375 -0.3125q0.640625 -0.328125 1.109375 -0.90625l0.125 1.03125l2.125 0l0 -14.0l-2.359375 0l0 5.046875q-0.46875 -0.515625 -1.078125 -0.796875q-0.59375 -0.28125 -1.390625 -0.28125q-0.90625 0 -1.625 0.359375q-0.71875 0.359375 -1.21875 1.03125q-0.5 0.65625 -0.765625 1.59375q-0.265625 0.921875 -0.265625 2.046875zm2.34375 0.1875l0 -0.1875q0 -0.640625 0.109375 -1.203125q0.125 -0.578125 0.390625 -1.0q0.25 -0.421875 0.65625 -0.65625q0.40625 -0.25 0.984375 -0.25q0.671875 0 1.125 0.3125q0.46875 0.296875 0.734375 0.8125l0 4.109375q-0.265625 0.53125 -0.734375 0.828125q-0.453125 0.296875 -1.15625 0.296875q-0.5625 0 -0.96875 -0.234375q-0.40625 -0.234375 -0.640625 -0.65625q-0.265625 -0.421875 -0.390625 -0.96875q-0.109375 -0.5625 -0.109375 -1.203125z" fill-rule="nonzero"/><path fill="#000000" fill-opacity="0.0" d="m310.54163 189.66583l113.102356 0l0 71.24408l-113.102356 0z" fill-rule="evenodd"/><path stroke="#ffffff" stroke-width="2.0" stroke-linejoin="round" stroke-linecap="butt" d="m310.54163 189.66583l113.102356 0l0 71.24408l-113.102356 0z" fill-rule="evenodd"/><path fill="#000000" fill-opacity="0.0" d="m316.6676 197.06477l100.8504 0l0 24.283463l-100.8504 0z" fill-rule="evenodd"/><path stroke="#ffffff" stroke-width="2.0" stroke-linejoin="round" stroke-linecap="butt" d="m316.6676 197.06477l100.8504 0l0 24.283463l-100.8504 0z" fill-rule="evenodd"/><path fill="#ffffff" d="m328.98645 211.12651l0 0.1875q0 1.0625 0.265625 1.984375q0.265625 0.921875 0.765625 1.59375q0.5 0.65625 1.21875 1.046875q0.71875 0.375 1.609375 0.375q0.84375 0 1.484375 -0.3125q0.640625 -0.328125 1.109375 -0.90625l0.125 1.03125l2.125 0l0 -14.0l-2.359375 0l0 5.046875q-0.46875 -0.515625 -1.078125 -0.796875q-0.59375 -0.28125 -1.390625 -0.28125q-0.90625 0 -1.625 0.359375q-0.71875 0.359375 -1.21875 1.03125q-0.5 0.65625 -0.765625 1.59375q-0.265625 0.921875 -0.265625 2.046875zm2.34375 0.1875l0 -0.1875q0 -0.640625 0.109375 -1.203125q0.125 -0.578125 0.390625 -1.0q0.25 -0.421875 0.65625 -0.65625q0.40625 -0.25 0.984375 -0.25q0.671875 0 1.125 0.3125q0.46875 0.296875 0.734375 0.8125l0 4.109375q-0.265625 0.53125 -0.734375 0.828125q-0.453125 0.296875 -1.15625 0.296875q-0.5625 0 -0.96875 -0.234375q-0.40625 -0.234375 -0.640625 -0.65625q-0.265625 -0.421875 -0.390625 -0.96875q-0.109375 -0.5625 -0.109375 -1.203125zm10.508057 8.796875q0.75 0 1.296875 -0.265625q0.5625 -0.25 0.9375 -0.609375q0.390625 -0.375 0.65625 -0.8125q0.265625 -0.4375 0.4375 -0.8125l5.0 -11.34375l-2.609375 0l-2.3125 5.921875l-0.390625 1.015625l-0.3125 -1.046875l-2.34375 -5.890625l-2.59375 0l4.1875 9.4375l-0.59375 1.125q-0.109375 0.203125 -0.203125 0.34375q-0.09375 0.140625 -0.28125 0.375q-0.171875 0.234375 -0.421875 0.40625q-0.234375 0.1875 -0.546875 0.1875q-0.140625 0 -0.375 -0.015625q-0.234375 0 -0.40625 0l-0.296875 1.8125q0.28125 0.078125 0.5625 0.125q0.28125 0.046875 0.609375 0.046875zm9.804962 -3.984375l2.359375 0l0 -7.015625q0.140625 -0.21875 0.3125 -0.40625q0.171875 -0.1875 0.390625 -0.328125q0.25 -0.171875 0.5625 -0.265625q0.328125 -0.09375 0.71875 -0.09375q0.46875 0 0.828125 0.09375q0.359375 0.09375 0.609375 0.328125q0.25 0.234375 0.390625 0.625q0.140625 0.390625 0.140625 1.0l0 6.0625l2.34375 0l0 -6.109375q0 -1.046875 -0.25 -1.796875q-0.234375 -0.75 -0.6875 -1.21875q-0.453125 -0.46875 -1.078125 -0.6875q-0.625 -0.21875 -1.375 -0.21875q-0.578125 0 -1.109375 0.171875q-0.515625 0.15625 -0.9375 0.453125q-0.265625 0.1875 -0.5 0.421875q-0.234375 0.234375 -0.4375 0.515625l-0.140625 -1.390625l-2.140625 0l0 9.859375zm11.679932 -14.0l0 1.953125l3.03125 0l0 10.109375l-3.03125 0l0 1.9375l8.3125 0l0 -1.9375l-2.90625 0l0 -12.0625l-5.40625 0zm11.304962 4.140625l0 1.9375l2.921875 0l0 5.984375l-2.921875 0l0 1.9375l8.0780945 0l0 -1.9375l-2.7812195 0l0 -7.921875l-5.296875 0zm2.734375 -2.53125q0 0.3125 0.125 0.578125q0.140625 0.25 0.390625 0.375q0.265625 0.15625 0.53125 0.1875q0.265625 0.015625 0.515625 -0.078125q0.546875 -0.046875 0.84375 -0.375q0.296875 -0.34375 0.265625 -0.84375q-0.03125 -0.5 -0.390625 -0.8125q-0.34375 -0.3125 -0.921875 -0.3125q-0.3125 0 -0.5625 0.09375q-0.25 0.09375 -0.421875 0.265625q-0.1875 0.171875 -0.28125 0.40625q-0.09375 0.234375 -0.09375 0.515625zm7.8674316 12.390625l2.359375 0l0 -7.015625q0.140625 -0.21875 0.3125 -0.40625q0.171875 -0.1875 0.390625 -0.328125q0.25 -0.171875 0.5625 -0.265625q0.328125 -0.09375 0.71875 -0.09375q0.46875 0 0.828125 0.09375q0.359375 0.09375 0.609375 0.328125q0.25 0.234375 0.390625 0.625q0.140625 0.390625 0.140625 1.0l0 6.0625l2.34375 0l0 -6.109375q0 -1.046875 -0.25 -1.796875q-0.234375 -0.75 -0.6875 -1.21875q-0.453125 -0.46875 -1.078125 -0.6875q-0.625 -0.21875 -1.375 -0.21875q-0.578125 0 -1.109375 0.171875q-0.515625 0.15625 -0.9375 0.453125q-0.265625 0.1875 -0.5 0.421875q-0.234375 0.234375 -0.4375 0.515625l-0.140625 -1.390625l-2.140625 0l0 9.859375zm14.758057 -4.1875l2.953125 4.1875l2.90625 0l-4.3125 -5.75l3.78125 -4.109375l-2.84375 0l-2.828125 3.046875l-0.84375 0.9375l0 -8.125l-2.34375 0l0 14.0l2.34375 0l0 -3.09375l1.1875 -1.09375z" fill-rule="nonzero"/><path fill="#000000" fill-opacity="0.0" d="m316.6676 230.57396l100.8504 0l0 24.283463l-100.8504 0z" fill-rule="evenodd"/><path stroke="#ffffff" stroke-width="2.0" stroke-linejoin="round" stroke-linecap="butt" d="m316.6676 230.57396l100.8504 0l0 24.283463l-100.8504 0z" fill-rule="evenodd"/><path fill="#ffffff" d="m332.04895 236.37007l-2.953125 0l0 13.265625l2.203125 0l0 -4.203125l-0.109375 -5.828125l1.703125 5.796875l1.203125 0l1.890625 -6.046875l-0.109375 6.078125l0 4.203125l2.203125 0l0 -13.265625l-2.953125 0l-1.625 5.328125l-1.453125 -5.328125zm8.023682 8.25l0 0.1875q0 1.078125 0.3125 2.0q0.3125 0.921875 0.921875 1.59375q0.578125 0.671875 1.4375 1.046875q0.859375 0.375 1.96875 0.375q1.09375 0 1.9375 -0.375q0.859375 -0.375 1.453125 -1.046875q0.578125 -0.671875 0.890625 -1.59375q0.3125 -0.921875 0.3125 -2.0l0 -0.1875q0 -1.078125 -0.3125 -1.984375q-0.3125 -0.921875 -0.890625 -1.59375q-0.59375 -0.6875 -1.453125 -1.0625q-0.859375 -0.375 -1.96875 -0.375q-1.09375 0 -1.953125 0.375q-0.84375 0.375 -1.421875 1.0625q-0.609375 0.671875 -0.921875 1.59375q-0.3125 0.90625 -0.3125 1.984375zm2.359375 0.1875l0 -0.1875q0 -0.625 0.125 -1.1875q0.140625 -0.5625 0.40625 -1.0q0.28125 -0.4375 0.703125 -0.671875q0.421875 -0.25 1.015625 -0.25q0.609375 0 1.03125 0.25q0.4375 0.234375 0.703125 0.671875q0.265625 0.4375 0.390625 1.0q0.140625 0.5625 0.140625 1.1875l0 0.1875q0 0.640625 -0.140625 1.21875q-0.125 0.5625 -0.390625 0.984375q-0.265625 0.421875 -0.703125 0.671875q-0.421875 0.25 -1.0 0.25q-0.609375 0 -1.046875 -0.25q-0.421875 -0.25 -0.703125 -0.671875q-0.265625 -0.421875 -0.40625 -0.984375q-0.125 -0.578125 -0.125 -1.21875zm9.211212 4.828125l2.359375 0l0 -7.015625q0.140625 -0.21875 0.3125 -0.40625q0.171875 -0.1875 0.390625 -0.328125q0.25 -0.171875 0.5625 -0.265625q0.328125 -0.09375 0.71875 -0.09375q0.46875 0 0.828125 0.09375q0.359375 0.09375 0.609375 0.328125q0.25 0.234375 0.390625 0.625q0.140625 0.390625 0.140625 1.0l0 6.0625l2.34375 0l0 -6.109375q0 -1.046875 -0.25 -1.796875q-0.234375 -0.75 -0.6875 -1.21875q-0.453125 -0.46875 -1.078125 -0.6875q-0.625 -0.21875 -1.375 -0.21875q-0.578125 0 -1.109375 0.171875q-0.515625 0.15625 -0.9375 0.453125q-0.265625 0.1875 -0.5 0.421875q-0.234375 0.234375 -0.4375 0.515625l-0.140625 -1.390625l-2.140625 0l0 9.859375zm11.789307 -9.859375l0 1.9375l2.921875 0l0 5.984375l-2.921875 0l0 1.9375l8.078125 0l0 -1.9375l-2.78125 0l0 -7.921875l-5.296875 0zm2.734375 -2.53125q0 0.3125 0.125 0.578125q0.140625 0.25 0.390625 0.375q0.265625 0.15625 0.53125 0.1875q0.265625 0.015625 0.515625 -0.078125q0.546875 -0.046875 0.84375 -0.375q0.296875 -0.34375 0.265625 -0.84375q-0.03125 -0.5 -0.390625 -0.8125q-0.34375 -0.3125 -0.921875 -0.3125q-0.3125 0 -0.5625 0.09375q-0.25 0.09375 -0.421875 0.265625q-0.1875 0.171875 -0.28125 0.40625q-0.09375 0.234375 -0.09375 0.515625zm12.383087 0.125l-2.359375 0l0 2.40625l-2.328125 0l0 1.75l2.328125 0l0 4.671875q0 0.953125 0.25 1.640625q0.25 0.6875 0.71875 1.125q0.453125 0.4375 1.09375 0.65625q0.640625 0.203125 1.421875 0.203125q0.40625 0 0.828125 -0.046875q0.43746948 -0.03125 0.8280945 -0.109375q0.390625 -0.0625 0.71875 -0.171875q0.34375 -0.109375 0.609375 -0.265625l-0.25 -1.625q-0.15625 0.046875 -0.40625 0.09375q-0.234375 0.046875 -0.515625 0.078125q-0.28125 0.046875 -0.59375 0.078125q-0.29684448 0.03125 -0.5780945 0.03125q-0.390625 0 -0.71875 -0.09375q-0.328125 -0.09375 -0.5625 -0.3125q-0.234375 -0.21875 -0.359375 -0.578125q-0.125 -0.359375 -0.125 -0.90625l0 -4.46875l3.6874695 0l0 -1.75l-3.6874695 0l0 -2.40625zm6.3049316 7.25l0 0.1875q0 1.078125 0.3125 2.0q0.3125 0.921875 0.921875 1.59375q0.578125 0.671875 1.4375 1.046875q0.859375 0.375 1.96875 0.375q1.09375 0 1.9375 -0.375q0.859375 -0.375 1.453125 -1.046875q0.578125 -0.671875 0.890625 -1.59375q0.3125 -0.921875 0.3125 -2.0l0 -0.1875q0 -1.078125 -0.3125 -1.984375q-0.3125 -0.921875 -0.890625 -1.59375q-0.59375 -0.6875 -1.453125 -1.0625q-0.859375 -0.375 -1.96875 -0.375q-1.09375 0 -1.953125 0.375q-0.84375 0.375 -1.421875 1.0625q-0.609375 0.671875 -0.921875 1.59375q-0.3125 0.90625 -0.3125 1.984375zm2.359375 0.1875l0 -0.1875q0 -0.625 0.125 -1.1875q0.140625 -0.5625 0.40625 -1.0q0.28125 -0.4375 0.703125 -0.671875q0.421875 -0.25 1.015625 -0.25q0.609375 0 1.03125 0.25q0.4375 0.234375 0.703125 0.671875q0.265625 0.4375 0.390625 1.0q0.140625 0.5625 0.140625 1.1875l0 0.1875q0 0.640625 -0.140625 1.21875q-0.125 0.5625 -0.390625 0.984375q-0.265625 0.421875 -0.703125 0.671875q-0.421875 0.25 -1.0 0.25q-0.609375 0 -1.046875 -0.25q-0.421875 -0.25 -0.703125 -0.671875q-0.265625 -0.421875 -0.40625 -0.984375q-0.125 -0.578125 -0.125 -1.21875zm16.164307 -5.203125q-1.015625 0 -1.859375 0.484375q-0.828125 0.46875 -1.421875 1.296875l-0.03125 -0.234375l-0.09375 -1.375l-2.1875 0l0 9.859375l2.359375 0l0 -6.0q0.15625 -0.4375 0.421875 -0.75q0.265625 -0.328125 0.625 -0.53125q0.328125 -0.203125 0.734375 -0.296875q0.421875 -0.109375 0.9375 -0.109375q0.484375 0 0.984375 0.0625q0.515625 0.0625 1.015625 0.171875l0.34375 -2.34375q-0.296875 -0.09375 -0.796875 -0.15625q-0.484375 -0.078125 -1.03125 -0.078125z" fill-rule="nonzero"/><path fill="#000000" fill-opacity="0.0" d="m205.69733 287.8968l166.67715 0l0 57.165375l-166.67715 0z" fill-rule="evenodd"/><path stroke="#ffffff" stroke-width="2.0" stroke-linejoin="round" stroke-linecap="butt" d="m205.69733 287.8968l166.67715 0l0 57.165375l-166.67715 0z" fill-rule="evenodd"/><path fill="#ffffff" d="m255.11299 301.08698l0 -1.953125l-10.515625 0l0 1.953125l4.046875 0l0 11.3125l2.375 0l0 -11.3125l4.09375 0zm2.461197 11.3125l2.03125 0l1.140625 -5.421875l0.21875 -1.125l0.21875 1.125l1.1875 5.421875l2.03125 0l1.828125 -9.859375l-2.140625 0l-0.8125 5.921875l-0.15625 1.078125l-0.1875 -1.078125l-1.171875 -5.921875l-1.5625 0l-1.171875 5.953125l-0.1875 1.03125l-0.140625 -1.03125l-0.8125 -5.953125l-2.15625 0l1.84375 9.859375zm11.008087 -9.859375l0 1.9375l2.921875 0l0 5.984375l-2.921875 0l0 1.9375l8.078125 0l0 -1.9375l-2.78125 0l0 -7.921875l-5.296875 0zm2.734375 -2.53125q0 0.3125 0.125 0.578125q0.140625 0.25 0.390625 0.375q0.265625 0.15625 0.53125 0.1875q0.265625 0.015625 0.515625 -0.078125q0.546875 -0.046875 0.84375 -0.375q0.296875 -0.34375 0.265625 -0.84375q-0.03125 -0.5 -0.390625 -0.8125q-0.34375 -0.3125 -0.921875 -0.3125q-0.3125 0 -0.5625 0.09375q-0.25 0.09375 -0.421875 0.265625q-0.1875 0.171875 -0.28125 0.40625q-0.09375 0.234375 -0.09375 0.515625zm10.867432 10.5l5.65625 -6.515625l0 -1.453125l-8.71875 0l0 1.921875l5.46875 0l-5.59375 6.4375l0 1.5l9.09375 0l0 -1.890625l-5.90625 0zm11.195587 0l5.65625 -6.515625l0 -1.453125l-8.71875 0l0 1.921875l5.46875 0l-5.59375 6.4375l0 1.5l9.09375 0l0 -1.890625l-5.90625 0zm8.679932 -12.109375l0 1.953125l3.03125 0l0 10.109375l-3.03125 0l0 1.9375l8.3125 0l0 -1.9375l-2.90625 0l0 -12.0625l-5.40625 0zm15.414337 14.1875q1.421875 0 2.453125 -0.5625q1.03125 -0.5625 1.515625 -1.265625l-1.203125 -1.25q-0.453125 0.578125 -1.15625 0.875q-0.703125 0.296875 -1.46875 0.296875q-0.5625 0 -1.03125 -0.171875q-0.46875 -0.1875 -0.84375 -0.515625q-0.34375 -0.3125 -0.546875 -0.71875q-0.203125 -0.40625 -0.328125 -1.015625l0 -0.046875l6.78125 0l0 -1.0q0 -1.078125 -0.296875 -1.96875q-0.296875 -0.890625 -0.859375 -1.53125q-0.578125 -0.640625 -1.40625 -0.984375q-0.8125 -0.359375 -1.875 -0.359375q-1.0 0 -1.859375 0.375q-0.859375 0.359375 -1.5 1.015625q-0.640625 0.671875 -1.0 1.609375q-0.359375 0.9375 -0.359375 2.078125l0 0.375q0 1.0 0.359375 1.875q0.359375 0.859375 1.015625 1.5q0.65625 0.640625 1.5625 1.015625q0.921875 0.375 2.046875 0.375zm-0.296875 -8.3125q0.53125 0 0.90625 0.171875q0.390625 0.171875 0.671875 0.453125q0.265625 0.28125 0.40625 0.671875q0.15625 0.390625 0.15625 0.796875l0 0.1875l-4.390625 0q0.09375 -0.53125 0.28125 -0.953125q0.203125 -0.421875 0.484375 -0.71875q0.296875 -0.296875 0.671875 -0.453125q0.375 -0.15625 0.8125 -0.15625zm13.742432 -1.90625q-1.015625 0 -1.859375 0.484375q-0.828125 0.46875 -1.421875 1.296875l-0.03125 -0.234375l-0.09375 -1.375l-2.1875 0l0 9.859375l2.359375 0l0 -6.0q0.15625 -0.4375 0.421875 -0.75q0.265625 -0.328125 0.625 -0.53125q0.328125 -0.203125 0.734375 -0.296875q0.421875 -0.109375 0.9375 -0.109375q0.484375 0 0.984375 0.0625q0.515625 0.0625 1.015625 0.171875l0.34375 -2.34375q-0.296875 -0.09375 -0.796875 -0.15625q-0.484375 -0.078125 -1.03125 -0.078125z" fill-rule="nonzero"/><path fill="#ffffff" d="m260.5117 328.80573l3.4375 5.59375l2.828125 0l-4.6875 -7.40625l4.5 -5.859375l-2.90625 0l-3.375 4.546875l-1.203125 1.609375l0 -6.15625l-2.40625 0l0 13.265625l2.40625 0l0 -4.03125l1.40625 -1.5625zm12.179962 5.78125q1.421875 0 2.453125 -0.5625q1.03125 -0.5625 1.515625 -1.265625l-1.203125 -1.25q-0.453125 0.578125 -1.15625 0.875q-0.703125 0.296875 -1.46875 0.296875q-0.5625 0 -1.03125 -0.171875q-0.46875 -0.1875 -0.84375 -0.515625q-0.34375 -0.3125 -0.546875 -0.71875q-0.203125 -0.40625 -0.328125 -1.015625l0 -0.046875l6.78125 0l0 -1.0q0 -1.078125 -0.296875 -1.96875q-0.296875 -0.890625 -0.859375 -1.53125q-0.578125 -0.640625 -1.40625 -0.984375q-0.8125 -0.359375 -1.875 -0.359375q-1.0 0 -1.859375 0.375q-0.859375 0.359375 -1.5 1.015625q-0.640625 0.671875 -1.0 1.609375q-0.359375 0.9375 -0.359375 2.078125l0 0.375q0 1.0 0.359375 1.875q0.359375 0.859375 1.015625 1.5q0.65625 0.640625 1.5625 1.015625q0.921875 0.375 2.046875 0.375zm-0.296875 -8.3125q0.53125 0 0.90625 0.171875q0.390625 0.171875 0.671875 0.453125q0.265625 0.28125 0.40625 0.671875q0.15625 0.390625 0.15625 0.796875l0 0.1875l-4.390625 0q0.09375 -0.53125 0.28125 -0.953125q0.203125 -0.421875 0.484375 -0.71875q0.296875 -0.296875 0.671875 -0.453125q0.375 -0.15625 0.8125 -0.15625zm13.742432 -1.90625q-1.015625 0 -1.859375 0.484375q-0.828125 0.46875 -1.421875 1.296875l-0.03125 -0.234375l-0.09375 -1.375l-2.1875 0l0 9.859375l2.359375 0l0 -6.0q0.15625 -0.4375 0.421875 -0.75q0.265625 -0.328125 0.625 -0.53125q0.328125 -0.203125 0.734375 -0.296875q0.421875 -0.109375 0.9375 -0.109375q0.484375 0 0.984375 0.0625q0.515625 0.0625 1.015625 0.171875l0.34375 -2.34375q-0.296875 -0.09375 -0.796875 -0.15625q-0.484375 -0.078125 -1.03125 -0.078125zm4.242462 10.03125l2.359375 0l0 -7.015625q0.140625 -0.21875 0.3125 -0.40625q0.171875 -0.1875 0.390625 -0.328125q0.25 -0.171875 0.5625 -0.265625q0.328125 -0.09375 0.71875 -0.09375q0.46875 0 0.828125 0.09375q0.359375 0.09375 0.609375 0.328125q0.25 0.234375 0.390625 0.625q0.140625 0.390625 0.140625 1.0l0 6.0625l2.34375 0l0 -6.109375q0 -1.046875 -0.25 -1.796875q-0.234375 -0.75 -0.6875 -1.21875q-0.453125 -0.46875 -1.078125 -0.6875q-0.625 -0.21875 -1.375 -0.21875q-0.578125 0 -1.109375 0.171875q-0.515625 0.15625 -0.9375 0.453125q-0.265625 0.1875 -0.5 0.421875q-0.234375 0.234375 -0.4375 0.515625l-0.140625 -1.390625l-2.140625 0l0 9.859375zm15.898682 0.1875q1.421875 0 2.453125 -0.5625q1.03125 -0.5625 1.515625 -1.265625l-1.203125 -1.25q-0.453125 0.578125 -1.15625 0.875q-0.703125 0.296875 -1.46875 0.296875q-0.5625 0 -1.03125 -0.171875q-0.46875 -0.1875 -0.84375 -0.515625q-0.34375 -0.3125 -0.546875 -0.71875q-0.203125 -0.40625 -0.328125 -1.015625l0 -0.046875l6.78125 0l0 -1.0q0 -1.078125 -0.296875 -1.96875q-0.296875 -0.890625 -0.859375 -1.53125q-0.578125 -0.640625 -1.40625 -0.984375q-0.8125 -0.359375 -1.875 -0.359375q-1.0 0 -1.859375 0.375q-0.859375 0.359375 -1.5 1.015625q-0.640625 0.671875 -1.0 1.609375q-0.359375 0.9375 -0.359375 2.078125l0 0.375q0 1.0 0.359375 1.875q0.359375 0.859375 1.015625 1.5q0.65625 0.640625 1.5625 1.015625q0.921875 0.375 2.046875 0.375zm-0.296875 -8.3125q0.53125 0 0.90625 0.171875q0.390625 0.171875 0.671875 0.453125q0.265625 0.28125 0.40625 0.671875q0.15625 0.390625 0.15625 0.796875l0 0.1875l-4.390625 0q0.09375 -0.53125 0.28125 -0.953125q0.203125 -0.421875 0.484375 -0.71875q0.296875 -0.296875 0.671875 -0.453125q0.375 -0.15625 0.8125 -0.15625zm7.273712 -5.875l0 1.953125l3.03125 0l0 10.109375l-3.03125 0l0 1.9375l8.3125 0l0 -1.9375l-2.90625 0l0 -12.0625l-5.40625 0z" fill-rule="nonzero"/><path fill="#000000" fill-opacity="0.0" d="m159.26556 203.74457l100.8504 0l0 57.165344l-100.8504 0z" fill-rule="evenodd"/><path stroke="#ffffff" stroke-width="2.0" stroke-linejoin="round" stroke-linecap="butt" d="m159.26556 203.74457l100.8504 0l0 57.165344l-100.8504 0z" fill-rule="evenodd"/><path fill="#ffffff" d="m185.51433 234.29413l2.109375 0q1.046875 -0.015625 1.90625 -0.3125q0.859375 -0.296875 1.46875 -0.84375q0.609375 -0.53125 0.9375 -1.28125q0.34375 -0.75 0.34375 -1.671875q0 -0.953125 -0.34375 -1.71875q-0.328125 -0.78125 -0.9375 -1.328125q-0.609375 -0.546875 -1.46875 -0.84375q-0.859375 -0.3125 -1.90625 -0.3125l-4.484375 0l0 13.265625l2.375 0l0 -4.953125zm0 -1.9375l0 -4.4375l2.109375 0q0.5625 0 0.984375 0.171875q0.421875 0.171875 0.703125 0.484375q0.28125 0.3125 0.421875 0.734375q0.15625 0.40625 0.15625 0.90625q0 0.4375 -0.15625 0.828125q-0.140625 0.390625 -0.421875 0.6875q-0.296875 0.296875 -0.71875 0.46875q-0.40625 0.15625 -0.96875 0.15625l-2.109375 0zm14.945572 6.890625l2.40625 0l0 -0.15625q-0.1875 -0.375 -0.28125 -0.890625q-0.09375 -0.53125 -0.09375 -1.265625l0 -4.296875q0 -0.859375 -0.328125 -1.5q-0.3125 -0.640625 -0.859375 -1.078125q-0.5625 -0.421875 -1.328125 -0.625q-0.75 -0.21875 -1.625 -0.21875q-0.984375 0 -1.75 0.25q-0.75 0.25 -1.28125 0.671875q-0.53125 0.421875 -0.8125 0.984375q-0.265625 0.546875 -0.265625 1.15625l2.359375 0q0 -0.265625 0.078125 -0.5q0.09375 -0.234375 0.296875 -0.40625q0.1875 -0.171875 0.5 -0.265625q0.328125 -0.109375 0.734375 -0.109375q0.484375 0 0.84375 0.125q0.359375 0.109375 0.609375 0.328125q0.234375 0.203125 0.34375 0.5q0.125 0.296875 0.125 0.671875l0 0.609375l-1.5 0q-1.078125 0 -1.921875 0.203125q-0.84375 0.1875 -1.421875 0.578125q-0.625 0.40625 -0.953125 1.03125q-0.3125 0.625 -0.3125 1.453125q0 0.625 0.25 1.171875q0.25 0.546875 0.71875 0.9375q0.4375 0.390625 1.0625 0.609375q0.640625 0.21875 1.40625 0.21875q0.46875 0 0.875 -0.09375q0.40625 -0.09375 0.75 -0.25q0.34375 -0.15625 0.625 -0.359375q0.28125 -0.203125 0.5 -0.4375q0.03125 0.265625 0.09375 0.515625q0.078125 0.25 0.15625 0.4375zm-2.53125 -1.671875q-0.375 0 -0.671875 -0.09375q-0.28125 -0.109375 -0.484375 -0.25q-0.1875 -0.1875 -0.296875 -0.421875q-0.09375 -0.234375 -0.09375 -0.515625q0 -0.359375 0.125 -0.640625q0.140625 -0.296875 0.40625 -0.5q0.28125 -0.234375 0.75 -0.34375q0.46875 -0.125 1.125 -0.125l1.34375 0l0 1.75q-0.125 0.21875 -0.328125 0.421875q-0.203125 0.203125 -0.484375 0.359375q-0.28125 0.15625 -0.625 0.265625q-0.34375 0.09375 -0.765625 0.09375zm7.242447 -3.328125l0 0.1875q0 1.0625 0.265625 1.984375q0.28125 0.921875 0.8125 1.59375q0.515625 0.65625 1.25 1.046875q0.734375 0.375 1.640625 0.375q0.484375 0 0.90625 -0.109375q0.421875 -0.109375 0.765625 -0.28125q0.21875 -0.140625 0.421875 -0.296875q0.203125 -0.171875 0.390625 -0.390625l0 0.640625q0 0.515625 -0.15625 0.9375q-0.140625 0.421875 -0.421875 0.703125q-0.296875 0.3125 -0.75 0.46875q-0.4375 0.15625 -1.0 0.15625q-0.34375 0 -0.671875 -0.0625q-0.328125 -0.0625 -0.640625 -0.203125q-0.3125 -0.140625 -0.609375 -0.375q-0.28125 -0.21875 -0.546875 -0.515625l-1.078125 1.421875q0.328125 0.4375 0.765625 0.734375q0.453125 0.296875 0.953125 0.484375q0.5 0.203125 1.0 0.28125q0.515625 0.09375 0.953125 0.09375q1.015625 0 1.859375 -0.28125q0.84375 -0.265625 1.4375 -0.8125q0.609375 -0.515625 0.9375 -1.296875q0.328125 -0.78125 0.328125 -1.78125l0 -9.5625l-2.140625 0l-0.09375 0.96875q-0.171875 -0.234375 -0.390625 -0.40625q-0.21875 -0.1875 -0.453125 -0.328125q-0.359375 -0.203125 -0.796875 -0.296875q-0.4375 -0.109375 -0.953125 -0.109375q-0.921875 0 -1.65625 0.359375q-0.734375 0.359375 -1.25 1.03125q-0.53125 0.65625 -0.8125 1.59375q-0.265625 0.921875 -0.265625 2.046875zm2.359375 0.1875l0 -0.1875q0 -0.640625 0.125 -1.203125q0.140625 -0.578125 0.421875 -1.0q0.265625 -0.421875 0.671875 -0.65625q0.421875 -0.25 1.0 -0.25q0.3125 0 0.578125 0.0625q0.28125 0.0625 0.5 0.1875q0.265625 0.125 0.453125 0.328125q0.203125 0.203125 0.34375 0.484375l0 4.234375q-0.140625 0.25 -0.328125 0.453125q-0.171875 0.1875 -0.40625 0.34375q-0.234375 0.125 -0.515625 0.203125q-0.28125 0.0625 -0.640625 0.0625q-0.578125 0 -1.0 -0.234375q-0.40625 -0.234375 -0.671875 -0.65625q-0.265625 -0.421875 -0.40625 -0.96875q-0.125 -0.5625 -0.125 -1.203125zm13.804947 5.0q1.421875 0 2.453125 -0.5625q1.03125 -0.5625 1.515625 -1.265625l-1.203125 -1.25q-0.453125 0.578125 -1.15625 0.875q-0.703125 0.296875 -1.46875 0.296875q-0.5625 0 -1.03125 -0.171875q-0.46875 -0.1875 -0.84375 -0.515625q-0.34375 -0.3125 -0.546875 -0.71875q-0.203125 -0.40625 -0.328125 -1.015625l0 -0.046875l6.78125 0l0 -1.0q0 -1.078125 -0.296875 -1.96875q-0.296875 -0.890625 -0.859375 -1.53125q-0.578125 -0.640625 -1.40625 -0.984375q-0.8125 -0.359375 -1.875 -0.359375q-1.0 0 -1.859375 0.375q-0.859375 0.359375 -1.5 1.015625q-0.640625 0.671875 -1.0 1.609375q-0.359375 0.9375 -0.359375 2.078125l0 0.375q0 1.0 0.359375 1.875q0.359375 0.859375 1.015625 1.5q0.65625 0.640625 1.5625 1.015625q0.921875 0.375 2.046875 0.375zm-0.296875 -8.3125q0.53125 0 0.90625 0.171875q0.390625 0.171875 0.671875 0.453125q0.265625 0.28125 0.40625 0.671875q0.15625 0.390625 0.15625 0.796875l0 0.1875l-4.390625 0q0.09375 -0.53125 0.28125 -0.953125q0.203125 -0.421875 0.484375 -0.71875q0.296875 -0.296875 0.671875 -0.453125q0.375 -0.15625 0.8125 -0.15625zm13.742447 -1.90625q-1.015625 0 -1.859375 0.484375q-0.828125 0.46875 -1.421875 1.296875l-0.03125 -0.234375l-0.09375 -1.375l-2.1875 0l0 9.859375l2.359375 0l0 -6.0q0.15625 -0.4375 0.421875 -0.75q0.265625 -0.328125 0.625 -0.53125q0.328125 -0.203125 0.734375 -0.296875q0.421875 -0.109375 0.9375 -0.109375q0.484375 0 0.984375 0.0625q0.515625 0.0625 1.015625 0.171875l0.34375 -2.34375q-0.296875 -0.09375 -0.796875 -0.15625q-0.484375 -0.078125 -1.03125 -0.078125z" fill-rule="nonzero"/><path fill="#ffffff" d="m558.07263 166.60808l18.803162 0l0 18.803162l-18.803162 0z" fill-rule="evenodd"/><path fill="#ffffff" d="m558.07263 198.60808l18.803162 0l0 18.803162l-18.803162 0z" fill-rule="evenodd"/><path fill="#000000" fill-opacity="0.0" d="m199.05428 111.19864l41.133865 0" fill-rule="evenodd"/><path stroke="#ffffff" stroke-width="2.0" stroke-linejoin="round" stroke-linecap="butt" d="m211.05428 111.19863l17.133865 0" fill-rule="evenodd"/><path fill="#ffffff" stroke="#ffffff" stroke-width="2.0" stroke-linecap="butt" d="m211.05428 107.89517l-9.076187 3.3034592l9.076187 3.3034668z" fill-rule="evenodd"/><path fill="#ffffff" stroke="#ffffff" stroke-width="2.0" stroke-linecap="butt" d="m228.18814 114.5021l9.076187 -3.3034668l-9.076187 -3.3034592z" fill-rule="evenodd"/><path fill="#000000" fill-opacity="0.0" d="m347.238 111.19864l66.36221 0" fill-rule="evenodd"/><path stroke="#ffffff" stroke-width="2.0" stroke-linejoin="round" stroke-linecap="butt" d="m359.23804 111.19863l42.362183 0" fill-rule="evenodd"/><path fill="#ffffff" stroke="#ffffff" stroke-width="2.0" stroke-linecap="butt" d="m359.23804 107.89517l-9.076202 3.3034592l9.076202 3.3034668z" fill-rule="evenodd"/><path fill="#ffffff" stroke="#ffffff" stroke-width="2.0" stroke-linecap="butt" d="m401.60022 114.5021l9.076202 -3.3034668l-9.076202 -3.3034592z" fill-rule="evenodd"/><path fill="#000000" fill-opacity="0.0" d="m493.4821 116.05953l48.53543 54.01574" fill-rule="evenodd"/><path stroke="#ffffff" stroke-width="2.0" stroke-linejoin="round" stroke-linecap="butt" d="m501.5025 124.98553l32.49469 36.16375" fill-rule="evenodd"/><path fill="#ffffff" stroke="#ffffff" stroke-width="2.0" stroke-linecap="butt" d="m503.95972 122.7776l-8.5234375 -4.543251l3.6090088 8.959091z" fill-rule="evenodd"/><path fill="#ffffff" stroke="#ffffff" stroke-width="2.0" stroke-linecap="butt" d="m531.5399 163.3572l8.5234375 4.5432587l-3.6089478 -8.959091z" fill-rule="evenodd"/><path fill="#000000" fill-opacity="0.0" d="m316.51624 152.08052l34.456665 35.244095" fill-rule="evenodd"/><path stroke="#ffffff" stroke-width="2.0" stroke-linejoin="round" stroke-linecap="butt" d="m324.9051 160.6611l17.678955 18.082932" fill-rule="evenodd"/><path fill="#ffffff" stroke="#ffffff" stroke-width="2.0" stroke-linecap="butt" d="m327.26724 158.35175l-8.707062 -4.1805573l3.982788 8.799286z" fill-rule="evenodd"/><path fill="#ffffff" stroke="#ffffff" stroke-width="2.0" stroke-linecap="butt" d="m340.2219 181.05339l8.707092 4.1805573l-3.9828186 -8.799286z" fill-rule="evenodd"/><path fill="#000000" fill-opacity="0.0" d="m267.1829 152.08052l-34.4252 50.110245" fill-rule="evenodd"/><path stroke="#ffffff" stroke-width="2.0" stroke-linejoin="round" stroke-linecap="butt" d="m260.38797 161.97139l-20.835373 30.328522" fill-rule="evenodd"/><path fill="#ffffff" stroke="#ffffff" stroke-width="2.0" stroke-linecap="butt" d="m263.1108 163.84195l2.416504 -9.351517l-7.8621826 5.610382z" fill-rule="evenodd"/><path fill="#ffffff" stroke="#ffffff" stroke-width="2.0" stroke-linecap="butt" d="m236.82976 190.42934l-2.4164886 9.351517l7.8621826 -5.610382z" fill-rule="evenodd"/><path fill="#000000" fill-opacity="0.0" d="m209.69077 260.9099l30.078735 25.858276" fill-rule="evenodd"/><path stroke="#ffffff" stroke-width="2.0" stroke-linejoin="round" stroke-linecap="butt" d="m218.79039 268.73276l11.879471 10.212585" fill-rule="evenodd"/><path fill="#ffffff" stroke="#ffffff" stroke-width="2.0" stroke-linecap="butt" d="m220.94394 266.22772l-9.0360565 -3.4117737l4.7289734 8.421814z" fill-rule="evenodd"/><path fill="#ffffff" stroke="#ffffff" stroke-width="2.0" stroke-linecap="butt" d="m228.51633 281.45038l9.036041 3.4117737l-4.7289734 -8.421814z" fill-rule="evenodd"/><path fill="#000000" fill-opacity="0.0" d="m311.81805 289.89417l39.93701 -28.188965" fill-rule="evenodd"/><path stroke="#ffffff" stroke-width="2.0" stroke-linejoin="round" stroke-linecap="butt" d="m321.6219 282.97427l20.329376 -14.349182" fill-rule="evenodd"/><path fill="#ffffff" stroke="#ffffff" stroke-width="2.0" stroke-linecap="butt" d="m319.71692 280.2754l-5.5101624 7.9327393l9.320099 -2.5349731z" fill-rule="evenodd"/><path fill="#ffffff" stroke="#ffffff" stroke-width="2.0" stroke-linecap="butt" d="m343.85623 271.32397l5.510132 -7.9327393l-9.320068 2.5349731z" fill-rule="evenodd"/><path fill="#000000" fill-opacity="0.0" d="m60.440105 238.44798l0 -87.46457" fill-rule="evenodd"/><path stroke="#ffffff" stroke-width="2.0" stroke-linejoin="round" stroke-linecap="butt" d="m60.440105 226.44798l0 -63.46457" fill-rule="evenodd"/><path fill="#ffffff" stroke="#ffffff" stroke-width="2.0" stroke-linecap="butt" d="m57.13664 226.44798l3.3034668 9.076187l3.303463 -9.076187z" fill-rule="evenodd"/><path fill="#ffffff" stroke="#ffffff" stroke-width="2.0" stroke-linecap="butt" d="m63.74357 162.98341l-3.303463 -9.076202l-3.3034668 9.076202z" fill-rule="evenodd"/><path fill="#000000" fill-opacity="0.0" d="m159.6842 151.92305l29.196854 52.629913" fill-rule="evenodd"/><path stroke="#ffffff" stroke-width="2.0" stroke-linejoin="round" stroke-linecap="butt" d="m165.50551 162.41649l17.55423 31.643036" fill-rule="evenodd"/><path fill="#ffffff" stroke="#ffffff" stroke-width="2.0" stroke-linecap="butt" d="m168.39424 160.81393l-7.2916718 -6.3341675l1.5142212 9.539261z" fill-rule="evenodd"/><path fill="#ffffff" stroke="#ffffff" stroke-width="2.0" stroke-linecap="butt" d="m180.171 195.66206l7.2916718 6.3341675l-1.5142212 -9.539246z" fill-rule="evenodd"/></g></svg>