<svg version="1.1" viewBox="0.0 0.0 283.45931758530185 411.87664041994753" fill="none" stroke="none" stroke-linecap="square" stroke-miterlimit="10" xmlns:xlink="http://www.w3.org/1999/xlink" xmlns="http://www.w3.org/2000/svg"><clipPath id="p.0"><path d="m0 0l283.45932 0l0 411.87665l-283.45932 0l0 -411.87665z" clip-rule="nonzero"/></clipPath><g clip-path="url(#p.0)"><path fill="#000000" fill-opacity="0.0" d="m0 0l283.45932 0l0 411.87665l-283.45932 0z" fill-rule="evenodd"/><path fill="#000000" fill-opacity="0.0" d="m16.0 16.0l252.12598 0l0 56.377953l-252.12598 0z" fill-rule="evenodd"/><path stroke="#000000" stroke-width="2.0" stroke-linejoin="round" stroke-linecap="butt" d="m16.0 16.0l252.12598 0l0 56.377953l-252.12598 0z" fill-rule="evenodd"/><path fill="#000000" d="m88.252975 48.202724l0.828125 2.90625l2.46875 0l-4.234375 -13.265625l-2.140625 0l-4.328125 13.265625l2.484375 0l0.84375 -2.90625l4.078125 0zm-3.5 -2.03125l1.484375 -5.0625l1.4375 5.0625l-2.921875 0zm8.304947 8.734375l2.34375 0l0 -4.671875q0.1875 0.1875 0.375 0.359375q0.203125 0.15625 0.421875 0.28125q0.359375 0.203125 0.78125 0.3125q0.4375 0.109375 0.9375 0.109375q0.9375 0 1.65625 -0.375q0.71875 -0.390625 1.203125 -1.0625q0.484375 -0.671875 0.734375 -1.59375q0.265625 -0.921875 0.265625 -1.984375l0 -0.203125q0 -1.109375 -0.265625 -2.03125q-0.25 -0.921875 -0.734375 -1.59375q-0.5 -0.65625 -1.21875 -1.015625q-0.71875 -0.359375 -1.65625 -0.359375q-0.46875 0 -0.890625 0.09375q-0.40625 0.09375 -0.75 0.28125q-0.265625 0.140625 -0.515625 0.34375q-0.234375 0.1875 -0.421875 0.453125l-0.09375 -1.0l-2.171875 0l0 13.65625zm6.359375 -8.828125l0 0.1875q0 0.640625 -0.125 1.21875q-0.109375 0.5625 -0.375 0.984375q-0.25 0.421875 -0.65625 0.671875q-0.40625 0.25 -0.96875 0.25q-0.359375 0 -0.65625 -0.078125q-0.296875 -0.078125 -0.515625 -0.203125q-0.234375 -0.15625 -0.40625 -0.34375q-0.171875 -0.203125 -0.3125 -0.453125l0 -4.25q0.140625 -0.265625 0.328125 -0.46875q0.203125 -0.203125 0.4375 -0.34375q0.21875 -0.125 0.484375 -0.1875q0.28125 -0.0625 0.609375 -0.0625q0.578125 0 0.984375 0.234375q0.40625 0.234375 0.671875 0.65625q0.25 0.421875 0.375 0.984375q0.125 0.5625 0.125 1.203125zm4.836197 8.828125l2.34375 0l0 -4.671875q0.1875 0.1875 0.375 0.359375q0.203125 0.15625 0.421875 0.28125q0.359375 0.203125 0.78125 0.3125q0.4375 0.109375 0.9375 0.109375q0.9375 0 1.65625 -0.375q0.71875 -0.390625 1.203125 -1.0625q0.484375 -0.671875 0.734375 -1.59375q0.265625 -0.921875 0.265625 -1.984375l0 -0.203125q0 -1.109375 -0.265625 -2.03125q-0.25 -0.921875 -0.734375 -1.59375q-0.5 -0.65625 -1.21875 -1.015625q-0.71875 -0.359375 -1.65625 -0.359375q-0.46875 0 -0.890625 0.09375q-0.40625 0.09375 -0.75 0.28125q-0.265625 0.140625 -0.515625 0.34375q-0.234375 0.1875 -0.421875 0.453125l-0.09375 -1.0l-2.171875 0l0 13.65625zm6.359375 -8.828125l0 0.1875q0 0.640625 -0.125 1.21875q-0.109375 0.5625 -0.375 0.984375q-0.25 0.421875 -0.65625 0.671875q-0.40625 0.25 -0.96875 0.25q-0.359375 0 -0.65625 -0.078125q-0.296875 -0.078125 -0.515625 -0.203125q-0.234375 -0.15625 -0.40625 -0.34375q-0.171875 -0.203125 -0.3125 -0.453125l0 -4.25q0.140625 -0.265625 0.328125 -0.46875q0.203125 -0.203125 0.4375 -0.34375q0.21875 -0.125 0.484375 -0.1875q0.28125 -0.0625 0.609375 -0.0625q0.578125 0 0.984375 0.234375q0.40625 0.234375 0.671875 0.65625q0.25 0.421875 0.375 0.984375q0.125 0.5625 0.125 1.203125zm5.289322 -8.96875l0 1.953125l3.03125 0l0 10.109375l-3.03125 0l0 1.9375l8.3125 0l0 -1.9375l-2.90625 0l0 -12.0625l-5.40625 0zm11.304947 4.140625l0 1.9375l2.921875 0l0 5.984375l-2.921875 0l0 1.9375l8.078125 0l0 -1.9375l-2.78125 0l0 -7.921875l-5.296875 0zm2.734375 -2.53125q0 0.3125 0.125 0.578125q0.140625 0.25 0.390625 0.375q0.265625 0.15625 0.53125 0.1875q0.265625 0.015625 0.515625 -0.078125q0.546875 -0.046875 0.84375 -0.375q0.296875 -0.34375 0.265625 -0.84375q-0.03125 -0.5 -0.390625 -0.8125q-0.34375 -0.3125 -0.921875 -0.3125q-0.3125 0 -0.5625 0.09375q-0.25 0.09375 -0.421875 0.265625q-0.1875 0.171875 -0.28125 0.40625q-0.09375 0.234375 -0.09375 0.515625zm12.195572 10.6875q-0.640625 0 -1.0625 -0.25q-0.421875 -0.265625 -0.671875 -0.703125q-0.265625 -0.421875 -0.375 -0.96875q-0.09375 -0.5625 -0.09375 -1.140625l0 -0.296875q0 -0.578125 0.109375 -1.125q0.109375 -0.5625 0.359375 -0.984375q0.25 -0.4375 0.671875 -0.6875q0.421875 -0.265625 1.0625 -0.265625q0.4375 0 0.796875 0.15625q0.359375 0.140625 0.625 0.390625q0.25 0.25 0.390625 0.59375q0.15625 0.328125 0.140625 0.71875l2.21875 0q0.015625 -0.84375 -0.296875 -1.546875q-0.296875 -0.703125 -0.859375 -1.1875q-0.546875 -0.484375 -1.3125 -0.75q-0.765625 -0.28125 -1.671875 -0.28125q-1.140625 0 -2.0 0.390625q-0.859375 0.390625 -1.421875 1.0625q-0.59375 0.6875 -0.890625 1.59375q-0.28125 0.890625 -0.28125 1.921875l0 0.296875q0 1.015625 0.296875 1.921875q0.296875 0.90625 0.875 1.578125q0.5625 0.671875 1.421875 1.0625q0.875 0.390625 2.015625 0.390625q0.828125 0 1.578125 -0.265625q0.75 -0.265625 1.328125 -0.734375q0.5625 -0.46875 0.890625 -1.109375q0.34375 -0.640625 0.328125 -1.390625l-2.21875 0q0.015625 0.359375 -0.140625 0.65625q-0.15625 0.296875 -0.4375 0.5q-0.265625 0.21875 -0.625 0.34375q-0.359375 0.109375 -0.75 0.109375zm13.086197 1.703125l2.40625 0l0 -0.15625q-0.1875 -0.375 -0.28125 -0.890625q-0.09375 -0.53125 -0.09375 -1.265625l0 -4.296875q0 -0.859375 -0.328125 -1.5q-0.3125 -0.640625 -0.859375 -1.078125q-0.5625 -0.421875 -1.328125 -0.625q-0.75 -0.21875 -1.625 -0.21875q-0.984375 0 -1.75 0.25q-0.75 0.25 -1.28125 0.671875q-0.53125 0.421875 -0.8125 0.984375q-0.265625 0.546875 -0.265625 1.15625l2.359375 0q0 -0.265625 0.078125 -0.5q0.09375 -0.234375 0.296875 -0.40625q0.1875 -0.171875 0.5 -0.265625q0.328125 -0.109375 0.734375 -0.109375q0.484375 0 0.84375 0.125q0.359375 0.109375 0.609375 0.328125q0.234375 0.203125 0.34375 0.5q0.125 0.296875 0.125 0.671875l0 0.609375l-1.5 0q-1.078125 0 -1.921875 0.203125q-0.84375 0.1875 -1.421875 0.578125q-0.625 0.40625 -0.953125 1.03125q-0.3125 0.625 -0.3125 1.453125q0 0.625 0.25 1.171875q0.25 0.546875 0.71875 0.9375q0.4375 0.390625 1.0625 0.609375q0.640625 0.21875 1.40625 0.21875q0.46875 0 0.875 -0.09375q0.40625 -0.09375 0.75 -0.25q0.34375 -0.15625 0.625 -0.359375q0.28125 -0.203125 0.5 -0.4375q0.03125 0.265625 0.09375 0.515625q0.078125 0.25 0.15625 0.4375zm-2.53125 -1.671875q-0.375 0 -0.671875 -0.09375q-0.28125 -0.109375 -0.484375 -0.25q-0.1875 -0.1875 -0.296875 -0.421875q-0.09375 -0.234375 -0.09375 -0.515625q0 -0.359375 0.125 -0.640625q0.140625 -0.296875 0.40625 -0.5q0.28125 -0.234375 0.75 -0.34375q0.46875 -0.125 1.125 -0.125l1.34375 0l0 1.75q-0.125 0.21875 -0.328125 0.421875q-0.203125 0.203125 -0.484375 0.359375q-0.28125 0.15625 -0.625 0.265625q-0.34375 0.09375 -0.765625 0.09375zm12.023697 -10.59375l-2.359375 0l0 2.40625l-2.328125 0l0 1.75l2.328125 0l0 4.671875q0 0.953125 0.25 1.640625q0.25 0.6875 0.71875 1.125q0.453125 0.4375 1.09375 0.65625q0.640625 0.203125 1.421875 0.203125q0.40625 0 0.828125 -0.046875q0.4375 -0.03125 0.828125 -0.109375q0.390625 -0.0625 0.71875 -0.171875q0.34375 -0.109375 0.609375 -0.265625l-0.25 -1.625q-0.15625 0.046875 -0.40625 0.09375q-0.234375 0.046875 -0.515625 0.078125q-0.28125 0.046875 -0.59375 0.078125q-0.296875 0.03125 -0.578125 0.03125q-0.390625 0 -0.71875 -0.09375q-0.328125 -0.09375 -0.5625 -0.3125q-0.234375 -0.21875 -0.359375 -0.578125q-0.125 -0.359375 -0.125 -0.90625l0 -4.46875l3.6875 0l0 -1.75l-3.6875 0l0 -2.40625zm7.273697 2.40625l0 1.9375l2.921875 0l0 5.984375l-2.921875 0l0 1.9375l8.078125 0l0 -1.9375l-2.78125 0l0 -7.921875l-5.296875 0zm2.734375 -2.53125q0 0.3125 0.125 0.578125q0.140625 0.25 0.390625 0.375q0.265625 0.15625 0.53125 0.1875q0.265625 0.015625 0.515625 -0.078125q0.546875 -0.046875 0.84375 -0.375q0.296875 -0.34375 0.265625 -0.84375q-0.03125 -0.5 -0.390625 -0.8125q-0.34375 -0.3125 -0.921875 -0.3125q-0.3125 0 -0.5625 0.09375q-0.25 0.09375 -0.421875 0.265625q-0.1875 0.171875 -0.28125 0.40625q-0.09375 0.234375 -0.09375 0.515625zm7.492447 7.375l0 0.1875q0 1.078125 0.3125 2.0q0.3125 0.921875 0.921875 1.59375q0.578125 0.671875 1.4375 1.046875q0.859375 0.375 1.96875 0.375q1.09375 0 1.9375 -0.375q0.859375 -0.375 1.453125 -1.046875q0.578125 -0.671875 0.890625 -1.59375q0.3125 -0.921875 0.3125 -2.0l0 -0.1875q0 -1.078125 -0.3125 -1.984375q-0.3125 -0.921875 -0.890625 -1.59375q-0.59375 -0.6875 -1.453125 -1.0625q-0.859375 -0.375 -1.96875 -0.375q-1.09375 0 -1.953125 0.375q-0.84375 0.375 -1.421875 1.0625q-0.609375 0.671875 -0.921875 1.59375q-0.3125 0.90625 -0.3125 1.984375zm2.359375 0.1875l0 -0.1875q0 -0.625 0.125 -1.1875q0.140625 -0.5625 0.40625 -1.0q0.28125 -0.4375 0.703125 -0.671875q0.421875 -0.25 1.015625 -0.25q0.609375 0 1.03125 0.25q0.4375 0.234375 0.703125 0.671875q0.265625 0.4375 0.390625 1.0q0.140625 0.5625 0.140625 1.1875l0 0.1875q0 0.640625 -0.140625 1.21875q-0.125 0.5625 -0.390625 0.984375q-0.265625 0.421875 -0.703125 0.671875q-0.421875 0.25 -1.0 0.25q-0.609375 0 -1.046875 -0.25q-0.421875 -0.25 -0.703125 -0.671875q-0.265625 -0.421875 -0.40625 -0.984375q-0.125 -0.578125 -0.125 -1.21875zm9.211197 4.828125l2.359375 0l0 -7.015625q0.140625 -0.21875 0.3125 -0.40625q0.171875 -0.1875 0.390625 -0.328125q0.25 -0.171875 0.5625 -0.265625q0.328125 -0.09375 0.71875 -0.09375q0.46875 0 0.828125 0.09375q0.359375 0.09375 0.609375 0.328125q0.25 0.234375 0.390625 0.625q0.140625 0.390625 0.140625 1.0l0 6.0625l2.34375 0l0 -6.109375q0 -1.046875 -0.25 -1.796875q-0.234375 -0.75 -0.6875 -1.21875q-0.453125 -0.46875 -1.078125 -0.6875q-0.625 -0.21875 -1.375 -0.21875q-0.578125 0 -1.109375 0.171875q-0.515625 0.15625 -0.9375 0.453125q-0.265625 0.1875 -0.5 0.421875q-0.234375 0.234375 -0.4375 0.515625l-0.140625 -1.390625l-2.140625 0l0 9.859375z" fill-rule="nonzero"/><path fill="#000000" fill-opacity="0.0" d="m16.0 264.0l252.12598 0l0 56.37796l-252.12598 0z" fill-rule="evenodd"/><path stroke="#000000" stroke-width="2.0" stroke-linejoin="round" stroke-linecap="butt" d="m16.0 264.0l252.12598 0l0 56.37796l-252.12598 0z" fill-rule="evenodd"/><path fill="#000000" d="m85.74894 287.79648l0 -1.953125l-10.515625 0l0 1.953125l4.046875 0l0 11.3125l2.375 0l0 -11.3125l4.09375 0zm2.461197 11.3125l2.03125 0l1.140625 -5.421875l0.21875 -1.125l0.21875 1.125l1.1875 5.421875l2.03125 0l1.828125 -9.859375l-2.140625 0l-0.8125 5.921875l-0.15625 1.078125l-0.1875 -1.078125l-1.171875 -5.921875l-1.5625 0l-1.171875 5.953125l-0.1875 1.03125l-0.140625 -1.03125l-0.8125 -5.953125l-2.15625 0l1.84375 9.859375zm11.008072 -9.859375l0 1.9375l2.921875 0l0 5.984375l-2.921875 0l0 1.9375l8.078125 0l0 -1.9375l-2.78125 0l0 -7.921875l-5.296875 0zm2.734375 -2.53125q0 0.3125 0.125 0.578125q0.140625 0.25 0.390625 0.375q0.265625 0.15625 0.53125 0.1875q0.265625 0.015625 0.515625 -0.078125q0.546875 -0.046875 0.84375 -0.375q0.296875 -0.34375 0.265625 -0.84375q-0.03125 -0.5 -0.390625 -0.8125q-0.34375 -0.3125 -0.921875 -0.3125q-0.3125 0 -0.5625 0.09375q-0.25 0.09375 -0.421875 0.265625q-0.1875 0.171875 -0.28125 0.40625q-0.09375 0.234375 -0.09375 0.515625zm10.867447 10.5l5.65625 -6.515625l0 -1.453125l-8.71875 0l0 1.921875l5.46875 0l-5.59375 6.4375l0 1.5l9.09375 0l0 -1.890625l-5.90625 0zm11.195572 0l5.6562424 -6.515625l0 -1.453125l-8.718742 0l0 1.921875l5.46875 0l-5.59375 6.4375l0 1.5l9.093742 0l0 -1.890625l-5.9062424 0zm8.679955 -12.109375l0 1.953125l3.03125 0l0 10.109375l-3.03125 0l0 1.9375l8.3125 0l0 -1.9375l-2.90625 0l0 -12.0625l-5.40625 0zm15.414307 14.1875q1.421875 0 2.453125 -0.5625q1.03125 -0.5625 1.515625 -1.265625l-1.203125 -1.25q-0.453125 0.578125 -1.15625 0.875q-0.703125 0.296875 -1.46875 0.296875q-0.5625 0 -1.03125 -0.171875q-0.46875 -0.1875 -0.84375 -0.515625q-0.34375 -0.3125 -0.546875 -0.71875q-0.203125 -0.40625 -0.328125 -1.015625l0 -0.046875l6.78125 0l0 -1.0q0 -1.078125 -0.296875 -1.96875q-0.296875 -0.890625 -0.859375 -1.53125q-0.578125 -0.640625 -1.40625 -0.984375q-0.8125 -0.359375 -1.875 -0.359375q-1.0 0 -1.859375 0.375q-0.859375 0.359375 -1.5 1.015625q-0.640625 0.671875 -1.0 1.609375q-0.359375 0.9375 -0.359375 2.078125l0 0.375q0 1.0 0.359375 1.875q0.359375 0.859375 1.015625 1.5q0.65625 0.640625 1.5625 1.015625q0.921875 0.375 2.046875 0.375zm-0.296875 -8.3125q0.53125 0 0.90625 0.171875q0.390625 0.171875 0.671875 0.453125q0.265625 0.28125 0.40625 0.671875q0.15625 0.390625 0.15625 0.796875l0 0.1875l-4.390625 0q0.09375 -0.53125 0.28125 -0.953125q0.203125 -0.421875 0.484375 -0.71875q0.296875 -0.296875 0.671875 -0.453125q0.375 -0.15625 0.8125 -0.15625zm13.742462 -1.90625q-1.015625 0 -1.859375 0.484375q-0.828125 0.46875 -1.421875 1.296875l-0.03125 -0.234375l-0.09375 -1.375l-2.1875 0l0 9.859375l2.359375 0l0 -6.0q0.15625 -0.4375 0.421875 -0.75q0.265625 -0.328125 0.625 -0.53125q0.328125 -0.203125 0.734375 -0.296875q0.421875 -0.109375 0.9375 -0.109375q0.484375 0 0.984375 0.0625q0.515625 0.0625 1.015625 0.171875l0.34375 -2.34375q-0.296875 -0.09375 -0.796875 -0.15625q-0.484375 -0.078125 -1.03125 -0.078125zm12.804932 5.140625l0 -1.90625l-7.453125 0l0 1.90625l7.453125 0zm8.851837 4.890625l2.40625 0l0 -0.15625q-0.1875 -0.375 -0.28125 -0.890625q-0.09375 -0.53125 -0.09375 -1.265625l0 -4.296875q0 -0.859375 -0.328125 -1.5q-0.3125 -0.640625 -0.859375 -1.078125q-0.5625 -0.421875 -1.328125 -0.625q-0.75 -0.21875 -1.625 -0.21875q-0.984375 0 -1.75 0.25q-0.75 0.25 -1.28125 0.671875q-0.53125 0.421875 -0.8125 0.984375q-0.265625 0.546875 -0.265625 1.15625l2.359375 0q0 -0.265625 0.078125 -0.5q0.09375 -0.234375 0.296875 -0.40625q0.1875 -0.171875 0.5 -0.265625q0.328125 -0.109375 0.734375 -0.109375q0.484375 0 0.84375 0.125q0.359375 0.109375 0.609375 0.328125q0.234375 0.203125 0.34375 0.5q0.125 0.296875 0.125 0.671875l0 0.609375l-1.5 0q-1.078125 0 -1.921875 0.203125q-0.84375 0.1875 -1.421875 0.578125q-0.625 0.40625 -0.953125 1.03125q-0.3125 0.625 -0.3125 1.453125q0 0.625 0.25 1.171875q0.25 0.546875 0.71875 0.9375q0.4375 0.390625 1.0625 0.609375q0.640625 0.21875 1.40625 0.21875q0.46875 0 0.875 -0.09375q0.40625 -0.09375 0.75 -0.25q0.34375 -0.15625 0.625 -0.359375q0.28125 -0.203125 0.5 -0.4375q0.03125 0.265625 0.09375 0.515625q0.078125 0.25 0.15625 0.4375zm-2.53125 -1.671875q-0.375 0 -0.671875 -0.09375q-0.28125 -0.109375 -0.484375 -0.25q-0.1875 -0.1875 -0.296875 -0.421875q-0.09375 -0.234375 -0.09375 -0.515625q0 -0.359375 0.125 -0.640625q0.140625 -0.296875 0.40625 -0.5q0.28125 -0.234375 0.75 -0.34375q0.46875 -0.125 1.125 -0.125l1.34375 0l0 1.75q-0.125 0.21875 -0.328125 0.421875q-0.203125 0.203125 -0.484375 0.359375q-0.28125 0.15625 -0.625 0.265625q-0.34375 0.09375 -0.765625 0.09375zm16.289307 -3.15625l0 -0.1875q0 -0.875 -0.15625 -1.640625q-0.15625 -0.765625 -0.46875 -1.375q-0.21875 -0.421875 -0.5 -0.765625q-0.265625 -0.34375 -0.625 -0.609375q-0.421875 -0.296875 -0.953125 -0.453125q-0.53125 -0.171875 -1.171875 -0.171875q-0.46875 0 -0.875 0.09375q-0.40625 0.09375 -0.75 0.28125q-0.25 0.140625 -0.46875 0.328125q-0.21875 0.1875 -0.40625 0.40625l0 -5.078125l-2.359375 0l0 14.0l2.125 0l0.109375 -1.0625q0.15625 0.203125 0.328125 0.375q0.1875 0.171875 0.390625 0.3125q0.375 0.265625 0.84375 0.40625q0.484375 0.15625 1.078125 0.15625q0.609375 0 1.125 -0.15625q0.515625 -0.15625 0.9375 -0.453125q0.484375 -0.328125 0.828125 -0.8125q0.359375 -0.5 0.578125 -1.109375q0.1875 -0.53125 0.28125 -1.15625q0.109375 -0.625 0.109375 -1.328125zm-2.359375 -0.1875l0 0.1875q0 0.390625 -0.046875 0.765625q-0.03125 0.359375 -0.109375 0.6875q-0.109375 0.421875 -0.296875 0.765625q-0.1875 0.328125 -0.484375 0.546875q-0.21875 0.15625 -0.515625 0.25q-0.28125 0.078125 -0.640625 0.078125q-0.390625 0 -0.71875 -0.09375q-0.3125 -0.109375 -0.546875 -0.28125q-0.21875 -0.15625 -0.375 -0.359375q-0.15625 -0.203125 -0.28125 -0.453125l0 -4.015625q0.09375 -0.1875 0.21875 -0.359375q0.125 -0.1875 0.28125 -0.328125q0.265625 -0.234375 0.609375 -0.359375q0.34375 -0.125 0.796875 -0.125q0.34375 0 0.625 0.078125q0.28125 0.078125 0.5 0.234375q0.328125 0.25 0.515625 0.5625q0.1875 0.3125 0.296875 0.71875q0.078125 0.328125 0.125 0.71875q0.046875 0.375 0.046875 0.78125zm5.367462 -4.84375l0 1.9375l2.921875 0l0 5.984375l-2.921875 0l0 1.9375l8.078125 0l0 -1.9375l-2.78125 0l0 -7.921875l-5.296875 0zm2.734375 -2.53125q0 0.3125 0.125 0.578125q0.140625 0.25 0.390625 0.375q0.265625 0.15625 0.53125 0.1875q0.265625 0.015625 0.515625 -0.078125q0.546875 -0.046875 0.84375 -0.375q0.296875 -0.34375 0.265625 -0.84375q-0.03125 -0.5 -0.390625 -0.8125q-0.34375 -0.3125 -0.921875 -0.3125q-0.3125 0 -0.5625 0.09375q-0.25 0.09375 -0.421875 0.265625q-0.1875 0.171875 -0.28125 0.40625q-0.09375 0.234375 -0.09375 0.515625z" fill-rule="nonzero"/><path fill="#000000" fill-opacity="0.0" d="m16.0 344.0l252.12598 0l0 56.37796l-252.12598 0z" fill-rule="evenodd"/><path stroke="#000000" stroke-width="2.0" stroke-linejoin="round" stroke-linecap="butt" d="m16.0 344.0l252.12598 0l0 56.37796l-252.12598 0z" fill-rule="evenodd"/><path fill="#000000" d="m113.53878 373.51523l3.4375 5.59375l2.828125 0l-4.6875 -7.40625l4.5 -5.859375l-2.90625 0l-3.375 4.546875l-1.203125 1.609375l0 -6.15625l-2.40625 0l0 13.265625l2.40625 0l0 -4.03125l1.40625 -1.5625zm12.179947 5.78125q1.421875 0 2.4531174 -0.5625q1.03125 -0.5625 1.515625 -1.265625l-1.203125 -1.25q-0.453125 0.578125 -1.1562424 0.875q-0.703125 0.296875 -1.46875 0.296875q-0.5625 0 -1.03125 -0.171875q-0.46875 -0.1875 -0.84375 -0.515625q-0.34375 -0.3125 -0.546875 -0.71875q-0.203125 -0.40625 -0.328125 -1.015625l0 -0.046875l6.7812424 0l0 -1.0q0 -1.078125 -0.296875 -1.96875q-0.296875 -0.890625 -0.859375 -1.53125q-0.578125 -0.640625 -1.4062424 -0.984375q-0.8125 -0.359375 -1.875 -0.359375q-1.0 0 -1.859375 0.375q-0.859375 0.359375 -1.5 1.015625q-0.640625 0.671875 -1.0 1.609375q-0.359375 0.9375 -0.359375 2.078125l0 0.375q0 1.0 0.359375 1.875q0.359375 0.859375 1.015625 1.5q0.65625 0.640625 1.5625 1.015625q0.921875 0.375 2.046875 0.375zm-0.296875 -8.3125q0.53125 0 0.90625 0.171875q0.390625 0.171875 0.671875 0.453125q0.265625 0.28125 0.40625 0.671875q0.15625 0.390625 0.15625 0.796875l0 0.1875l-4.390625 0q0.09375 -0.53125 0.28125 -0.953125q0.203125 -0.421875 0.484375 -0.71875q0.296875 -0.296875 0.671875 -0.453125q0.375 -0.15625 0.8125 -0.15625zm13.742455 -1.90625q-1.015625 0 -1.859375 0.484375q-0.828125 0.46875 -1.421875 1.296875l-0.03125 -0.234375l-0.09375 -1.375l-2.1875 0l0 9.859375l2.359375 0l0 -6.0q0.15625 -0.4375 0.421875 -0.75q0.265625 -0.328125 0.625 -0.53125q0.328125 -0.203125 0.734375 -0.296875q0.421875 -0.109375 0.9375 -0.109375q0.484375 0 0.984375 0.0625q0.515625 0.0625 1.015625 0.171875l0.34375 -2.34375q-0.296875 -0.09375 -0.796875 -0.15625q-0.484375 -0.078125 -1.03125 -0.078125zm4.2424316 10.03125l2.359375 0l0 -7.015625q0.140625 -0.21875 0.3125 -0.40625q0.171875 -0.1875 0.390625 -0.328125q0.25 -0.171875 0.5625 -0.265625q0.328125 -0.09375 0.71875 -0.09375q0.46875 0 0.828125 0.09375q0.359375 0.09375 0.609375 0.328125q0.25 0.234375 0.390625 0.625q0.140625 0.390625 0.140625 1.0l0 6.0625l2.34375 0l0 -6.109375q0 -1.046875 -0.25 -1.796875q-0.234375 -0.75 -0.6875 -1.21875q-0.453125 -0.46875 -1.078125 -0.6875q-0.625 -0.21875 -1.375 -0.21875q-0.578125 0 -1.109375 0.171875q-0.515625 0.15625 -0.9375 0.453125q-0.265625 0.1875 -0.5 0.421875q-0.234375 0.234375 -0.4375 0.515625l-0.140625 -1.390625l-2.140625 0l0 9.859375zm15.898712 0.1875q1.421875 0 2.453125 -0.5625q1.03125 -0.5625 1.515625 -1.265625l-1.203125 -1.25q-0.453125 0.578125 -1.15625 0.875q-0.703125 0.296875 -1.46875 0.296875q-0.5625 0 -1.03125 -0.171875q-0.46875 -0.1875 -0.84375 -0.515625q-0.34375 -0.3125 -0.546875 -0.71875q-0.203125 -0.40625 -0.328125 -1.015625l0 -0.046875l6.78125 0l0 -1.0q0 -1.078125 -0.296875 -1.96875q-0.296875 -0.890625 -0.859375 -1.53125q-0.578125 -0.640625 -1.40625 -0.984375q-0.8125 -0.359375 -1.875 -0.359375q-1.0 0 -1.859375 0.375q-0.859375 0.359375 -1.5 1.015625q-0.640625 0.671875 -1.0 1.609375q-0.359375 0.9375 -0.359375 2.078125l0 0.375q0 1.0 0.359375 1.875q0.359375 0.859375 1.015625 1.5q0.65625 0.640625 1.5625 1.015625q0.921875 0.375 2.046875 0.375zm-0.296875 -8.3125q0.53125 0 0.90625 0.171875q0.390625 0.171875 0.671875 0.453125q0.265625 0.28125 0.40625 0.671875q0.15625 0.390625 0.15625 0.796875l0 0.1875l-4.390625 0q0.09375 -0.53125 0.28125 -0.953125q0.203125 -0.421875 0.484375 -0.71875q0.296875 -0.296875 0.671875 -0.453125q0.375 -0.15625 0.8125 -0.15625zm7.2736816 -5.875l0 1.953125l3.03125 0l0 10.109375l-3.03125 0l0 1.9375l8.3125 0l0 -1.9375l-2.90625 0l0 -12.0625l-5.40625 0z" fill-rule="nonzero"/><path fill="#000000" fill-opacity="0.0" d="m158.36229 96.0l109.76378 0l0 56.37796l-109.76378 0z" fill-rule="evenodd"/><path stroke="#000000" stroke-width="2.0" stroke-linejoin="round" stroke-linecap="butt" d="m158.36229 96.0l109.76378 0l0 56.37796l-109.76378 0z" fill-rule="evenodd"/><path fill="#000000" d="m196.60304 115.0621l2.515625 5.0468674l2.546875 0l0 -0.125l-2.84375 -5.4999924q0.546875 -0.25 0.984375 -0.578125q0.453125 -0.34375 0.78125 -0.796875q0.296875 -0.4375 0.46875 -1.0q0.1875 -0.578125 0.1875 -1.265625q0 -0.984375 -0.34375 -1.734375q-0.34375 -0.75 -0.96875 -1.25q-0.640625 -0.5 -1.515625 -0.75q-0.875 -0.265625 -1.9375 -0.265625l-4.34375 0l0 13.265617l2.375 0l0 -5.0468674l2.09375 0zm-2.09375 -1.9375l0 -4.34375l1.96875 0q0.546875 0 0.96875 0.140625q0.421875 0.125 0.734375 0.390625q0.328125 0.265625 0.5 0.6875q0.171875 0.421875 0.171875 0.96875q0 0.484375 -0.140625 0.859375q-0.140625 0.375 -0.40625 0.640625q-0.3125 0.3125 -0.78125 0.484375q-0.453125 0.171875 -1.03125 0.171875l-1.984375 0zm15.320572 6.9843674l2.140625 0l0 -9.859367l-2.359375 0l0 6.9531174q-0.125 0.25 -0.296875 0.46875q-0.171875 0.203125 -0.390625 0.34375q-0.265625 0.171875 -0.625 0.265625q-0.34375 0.09375 -0.78125 0.09375q-0.453125 0 -0.78125 -0.109375q-0.3125 -0.109375 -0.515625 -0.390625q-0.203125 -0.25 -0.296875 -0.6875q-0.09375 -0.4375 -0.09375 -1.078125l0 -5.8593674l-2.359375 0l0 5.8437424q0 1.109375 0.25 1.90625q0.25 0.796875 0.703125 1.3125q0.453125 0.515625 1.078125 0.75q0.640625 0.234375 1.40625 0.234375q0.875 0 1.578125 -0.40625q0.71875 -0.421875 1.21875 -1.15625l0.125 1.375zm11.164322 -2.6875q0 0.234375 -0.109375 0.4375q-0.109375 0.1875 -0.328125 0.34375q-0.25 0.171875 -0.640625 0.265625q-0.390625 0.09375 -0.9375 0.09375q-0.40625 0 -0.8125 -0.078125q-0.390625 -0.078125 -0.703125 -0.265625q-0.3125 -0.1875 -0.515625 -0.484375q-0.203125 -0.296875 -0.234375 -0.734375l-2.25 0q0 0.609375 0.28125 1.203125q0.296875 0.59375 0.875 1.046875q0.5625 0.484375 1.390625 0.765625q0.84375 0.28125 1.9375 0.28125q0.96875 0 1.78125 -0.21875q0.8125 -0.21875 1.375 -0.609375q0.5625 -0.40625 0.859375 -0.953125q0.3125 -0.546875 0.3125 -1.203125q0 -0.6875 -0.296875 -1.1875q-0.296875 -0.49999237 -0.84375 -0.8749924q-0.53125 -0.34375 -1.296875 -0.578125q-0.75 -0.234375 -1.640625 -0.390625q-0.640625 -0.109375 -1.0625 -0.234375q-0.40625 -0.125 -0.640625 -0.28125q-0.234375 -0.15625 -0.34375 -0.34375q-0.09375 -0.203125 -0.09375 -0.4375q0 -0.234375 0.109375 -0.4375q0.125 -0.21875 0.328125 -0.375q0.234375 -0.171875 0.59375 -0.265625q0.359375 -0.09375 0.84375 -0.09375q0.53125 0 0.921875 0.140625q0.390625 0.125 0.640625 0.359375q0.1875 0.1875 0.28125 0.421875q0.109375 0.234375 0.109375 0.5l2.359375 0q0 -0.671875 -0.296875 -1.25q-0.296875 -0.578125 -0.859375 -1.015625q-0.546875 -0.421875 -1.359375 -0.65625q-0.796875 -0.234375 -1.796875 -0.234375q-0.953125 0 -1.734375 0.234375q-0.765625 0.234375 -1.296875 0.65625q-0.546875 0.40625 -0.828125 0.953125q-0.28125 0.546875 -0.28125 1.171875q0 0.625 0.28125 1.109375q0.28125 0.46875 0.78125 0.828125q0.5 0.359375 1.203125 0.625q0.71875 0.25 1.59375 0.42186737q0.671875 0.125 1.125 0.265625q0.453125 0.140625 0.734375 0.296875q0.265625 0.15625 0.375 0.34375q0.109375 0.1875 0.109375 0.4375zm9.304947 -9.578117l-2.359375 0l0 2.40625l-2.328125 0l0 1.75l2.328125 0l0 4.6718674q0 0.953125 0.25 1.640625q0.25 0.6875 0.71875 1.125q0.453125 0.4375 1.09375 0.65625q0.640625 0.203125 1.421875 0.203125q0.40625 0 0.828125 -0.046875q0.4375 -0.03125 0.828125 -0.109375q0.390625 -0.0625 0.71875 -0.171875q0.34375 -0.109375 0.609375 -0.265625l-0.25 -1.625q-0.15625 0.046875 -0.40625 0.09375q-0.234375 0.046875 -0.515625 0.078125q-0.28125 0.046875 -0.59375 0.078125q-0.296875 0.03125 -0.578125 0.03125q-0.390625 0 -0.71875 -0.09375q-0.328125 -0.09375 -0.5625 -0.3125q-0.234375 -0.21875 -0.359375 -0.578125q-0.125 -0.359375 -0.125 -0.90625l0 -4.4687424l3.6875 0l0 -1.75l-3.6875 0l0 -2.40625z" fill-rule="nonzero"/><path fill="#000000" d="m183.50122 140.17148l0 -11.328125l-2.390625 0l0 13.265625l8.65625 0l0 -1.9375l-6.265625 0zm9.289322 -7.921875l0 1.9375l2.921875 0l0 5.984375l-2.921875 0l0 1.9375l8.078125 0l0 -1.9375l-2.78125 0l0 -7.921875l-5.296875 0zm2.734375 -2.53125q0 0.3125 0.125 0.578125q0.140625 0.25 0.390625 0.375q0.265625 0.15625 0.53125 0.1875q0.265625 0.015625 0.515625 -0.078125q0.546875 -0.046875 0.84375 -0.375q0.296875 -0.34375 0.265625 -0.84375q-0.03125 -0.5 -0.390625 -0.8125q-0.34375 -0.3125 -0.921875 -0.3125q-0.3125 0 -0.5625 0.09375q-0.25 0.09375 -0.421875 0.265625q-0.1875 0.171875 -0.28125 0.40625q-0.09375 0.234375 -0.09375 0.515625zm16.648697 7.5625l0 -0.1875q0 -0.875 -0.15625 -1.640625q-0.15625 -0.765625 -0.46875 -1.375q-0.21875 -0.421875 -0.5 -0.765625q-0.265625 -0.34375 -0.625 -0.609375q-0.421875 -0.296875 -0.953125 -0.453125q-0.53125 -0.171875 -1.171875 -0.171875q-0.46875 0 -0.875 0.09375q-0.40625 0.09375 -0.75 0.28125q-0.25 0.140625 -0.46875 0.328125q-0.21875 0.1875 -0.40625 0.40625l0 -5.078125l-2.359375 0l0 14.0l2.125 0l0.109375 -1.0625q0.15625 0.203125 0.328125 0.375q0.1875 0.171875 0.390625 0.3125q0.375 0.265625 0.84375 0.40625q0.484375 0.15625 1.078125 0.15625q0.609375 0 1.125 -0.15625q0.515625 -0.15625 0.9375 -0.453125q0.484375 -0.328125 0.828125 -0.8125q0.359375 -0.5 0.578125 -1.109375q0.1875 -0.53125 0.28125 -1.15625q0.109375 -0.625 0.109375 -1.328125zm-2.359375 -0.1875l0 0.1875q0 0.390625 -0.046875 0.765625q-0.03125 0.359375 -0.109375 0.6875q-0.109375 0.421875 -0.296875 0.765625q-0.1875 0.328125 -0.484375 0.546875q-0.21875 0.15625 -0.515625 0.25q-0.28125 0.078125 -0.640625 0.078125q-0.390625 0 -0.71875 -0.09375q-0.3125 -0.109375 -0.546875 -0.28125q-0.21875 -0.15625 -0.375 -0.359375q-0.15625 -0.203125 -0.28125 -0.453125l0 -4.015625q0.09375 -0.1875 0.21875 -0.359375q0.125 -0.1875 0.28125 -0.328125q0.265625 -0.234375 0.609375 -0.359375q0.34375 -0.125 0.796875 -0.125q0.34375 0 0.625 0.078125q0.28125 0.078125 0.5 0.234375q0.328125 0.25 0.515625 0.5625q0.1875 0.3125 0.296875 0.71875q0.078125 0.328125 0.125 0.71875q0.046875 0.375 0.046875 0.78125zm11.179947 2.328125q0 0.234375 -0.109375 0.4375q-0.109375 0.1875 -0.328125 0.34375q-0.25 0.171875 -0.640625 0.265625q-0.390625 0.09375 -0.9375 0.09375q-0.40625 0 -0.8125 -0.078125q-0.390625 -0.078125 -0.703125 -0.265625q-0.3125 -0.1875 -0.515625 -0.484375q-0.203125 -0.296875 -0.234375 -0.734375l-2.25 0q0 0.609375 0.28125 1.203125q0.296875 0.59375 0.875 1.046875q0.5625 0.484375 1.390625 0.765625q0.84375 0.28125 1.9375 0.28125q0.96875 0 1.78125 -0.21875q0.8125 -0.21875 1.375 -0.609375q0.5625 -0.40625 0.859375 -0.953125q0.3125 -0.546875 0.3125 -1.203125q0 -0.6875 -0.296875 -1.1875q-0.296875 -0.5 -0.84375 -0.875q-0.53125 -0.34375 -1.296875 -0.578125q-0.75 -0.234375 -1.640625 -0.390625q-0.640625 -0.109375 -1.0625 -0.234375q-0.40625 -0.125 -0.640625 -0.28125q-0.234375 -0.15625 -0.34375 -0.34375q-0.09375 -0.203125 -0.09375 -0.4375q0 -0.234375 0.109375 -0.4375q0.125 -0.21875 0.328125 -0.375q0.234375 -0.171875 0.59375 -0.265625q0.359375 -0.09375 0.84375 -0.09375q0.53125 0 0.921875 0.140625q0.390625 0.125 0.640625 0.359375q0.1875 0.1875 0.28125 0.421875q0.109375 0.234375 0.109375 0.5l2.359375 0q0 -0.671875 -0.296875 -1.25q-0.296875 -0.578125 -0.859375 -1.015625q-0.546875 -0.421875 -1.359375 -0.65625q-0.796875 -0.234375 -1.796875 -0.234375q-0.953125 0 -1.734375 0.234375q-0.765625 0.234375 -1.296875 0.65625q-0.546875 0.40625 -0.828125 0.953125q-0.28125 0.546875 -0.28125 1.171875q0 0.625 0.28125 1.109375q0.28125 0.46875 0.78125 0.828125q0.5 0.359375 1.203125 0.625q0.71875 0.25 1.59375 0.421875q0.671875 0.125 1.125 0.265625q0.453125 0.140625 0.734375 0.296875q0.265625 0.15625 0.375 0.34375q0.109375 0.1875 0.109375 0.4375zm9.304947 -9.578125l-2.359375 0l0 2.40625l-2.328125 0l0 1.75l2.328125 0l0 4.671875q0 0.953125 0.25 1.640625q0.25 0.6875 0.71875 1.125q0.453125 0.4375 1.09375 0.65625q0.640625 0.203125 1.421875 0.203125q0.40625 0 0.828125 -0.046875q0.4375 -0.03125 0.828125 -0.109375q0.390625 -0.0625 0.71875 -0.171875q0.34375 -0.109375 0.609375 -0.265625l-0.25 -1.625q-0.15625 0.046875 -0.40625 0.09375q-0.234375 0.046875 -0.515625 0.078125q-0.28125 0.046875 -0.59375 0.078125q-0.296875 0.03125 -0.578125 0.03125q-0.390625 0 -0.71875 -0.09375q-0.328125 -0.09375 -0.5625 -0.3125q-0.234375 -0.21875 -0.359375 -0.578125q-0.125 -0.359375 -0.125 -0.90625l0 -4.46875l3.6875 0l0 -1.75l-3.6875 0l0 -2.40625zm6.414322 7.265625l0 0.1875q0 1.0625 0.265625 1.984375q0.265625 0.921875 0.765625 1.59375q0.5 0.65625 1.21875 1.046875q0.71875 0.375 1.609375 0.375q0.84375 0 1.484375 -0.3125q0.640625 -0.328125 1.109375 -0.90625l0.125 1.03125l2.125 0l0 -14.0l-2.359375 0l0 5.046875q-0.46875 -0.515625 -1.078125 -0.796875q-0.59375 -0.28125 -1.390625 -0.28125q-0.90625 0 -1.625 0.359375q-0.71875 0.359375 -1.21875 1.03125q-0.5 0.65625 -0.765625 1.59375q-0.265625 0.921875 -0.265625 2.046875zm2.34375 0.1875l0 -0.1875q0 -0.640625 0.109375 -1.203125q0.125 -0.578125 0.390625 -1.0q0.25 -0.421875 0.65625 -0.65625q0.40625 -0.25 0.984375 -0.25q0.671875 0 1.125 0.3125q0.46875 0.296875 0.734375 0.8125l0 4.109375q-0.265625 0.53125 -0.734375 0.828125q-0.453125 0.296875 -1.15625 0.296875q-0.5625 0 -0.96875 -0.234375q-0.40625 -0.234375 -0.640625 -0.65625q-0.265625 -0.421875 -0.390625 -0.96875q-0.109375 -0.5625 -0.109375 -1.203125z" fill-rule="nonzero"/><path fill="#000000" fill-opacity="0.0" d="m158.36229 184.0l109.76378 0l0 56.37796l-109.76378 0z" fill-rule="evenodd"/><path stroke="#000000" stroke-width="2.0" stroke-linejoin="round" stroke-linecap="butt" d="m158.36229 184.0l109.76378 0l0 56.37796l-109.76378 0z" fill-rule="evenodd"/><path fill="#000000" d="m179.80968 214.0621l2.515625 5.046875l2.546875 0l0 -0.125l-2.84375 -5.5q0.546875 -0.25 0.984375 -0.578125q0.453125 -0.34375 0.78125 -0.796875q0.296875 -0.4375 0.46875 -1.0q0.1875 -0.578125 0.1875 -1.265625q0 -0.984375 -0.34375 -1.734375q-0.34375 -0.75 -0.96875 -1.25q-0.640625 -0.5 -1.515625 -0.75q-0.875 -0.265625 -1.9375 -0.265625l-4.34375 0l0 13.265625l2.375 0l0 -5.046875l2.09375 0zm-2.09375 -1.9375l0 -4.34375l1.96875 0q0.546875 0 0.96875 0.140625q0.421875 0.125 0.734375 0.390625q0.328125 0.265625 0.5 0.6875q0.171875 0.421875 0.171875 0.96875q0 0.484375 -0.140625 0.859375q-0.140625 0.375 -0.40625 0.640625q-0.3125 0.3125 -0.78125 0.484375q-0.453125 0.171875 -1.03125 0.171875l-1.984375 0zm15.320572 6.984375l2.140625 0l0 -9.859375l-2.359375 0l0 6.953125q-0.125 0.25 -0.296875 0.46875q-0.171875 0.203125 -0.390625 0.34375q-0.265625 0.171875 -0.625 0.265625q-0.34375 0.09375 -0.78125 0.09375q-0.453125 0 -0.78125 -0.109375q-0.3125 -0.109375 -0.515625 -0.390625q-0.203125 -0.25 -0.296875 -0.6875q-0.09375 -0.4375 -0.09375 -1.078125l0 -5.859375l-2.359375 0l0 5.84375q0 1.109375 0.25 1.90625q0.25 0.796875 0.703125 1.3125q0.453125 0.515625 1.078125 0.75q0.640625 0.234375 1.40625 0.234375q0.875 0 1.578125 -0.40625q0.71875 -0.421875 1.21875 -1.15625l0.125 1.375zm4.758072 0l2.359375 0l0 -7.015625q0.140625 -0.21875 0.3125 -0.40625q0.171875 -0.1875 0.390625 -0.328125q0.25 -0.171875 0.5625 -0.265625q0.328125 -0.09375 0.71875 -0.09375q0.46875 0 0.828125 0.09375q0.359375 0.09375 0.609375 0.328125q0.25 0.234375 0.390625 0.625q0.140625 0.390625 0.140625 1.0l0 6.0625l2.34375 0l0 -6.109375q0 -1.046875 -0.25 -1.796875q-0.234375 -0.75 -0.6875 -1.21875q-0.453125 -0.46875 -1.078125 -0.6875q-0.625 -0.21875 -1.375 -0.21875q-0.578125 0 -1.109375 0.171875q-0.515625 0.15625 -0.9375 0.453125q-0.265625 0.1875 -0.5 0.421875q-0.234375 0.234375 -0.4375 0.515625l-0.140625 -1.390625l-2.140625 0l0 9.859375zm15.711197 -12.265625l-2.359375 0l0 2.40625l-2.328125 0l0 1.75l2.328125 0l0 4.671875q0 0.953125 0.25 1.640625q0.25 0.6875 0.71875 1.125q0.453125 0.4375 1.09375 0.65625q0.640625 0.203125 1.421875 0.203125q0.40625 0 0.828125 -0.046875q0.4375 -0.03125 0.828125 -0.109375q0.390625 -0.0625 0.71875 -0.171875q0.34375 -0.109375 0.609375 -0.265625l-0.25 -1.625q-0.15625 0.046875 -0.40625 0.09375q-0.234375 0.046875 -0.515625 0.078125q-0.28125 0.046875 -0.59375 0.078125q-0.296875 0.03125 -0.578125 0.03125q-0.390625 0 -0.71875 -0.09375q-0.328125 -0.09375 -0.5625 -0.3125q-0.234375 -0.21875 -0.359375 -0.578125q-0.125 -0.359375 -0.125 -0.90625l0 -4.46875l3.6875 0l0 -1.75l-3.6875 0l0 -2.40625zm7.273697 2.40625l0 1.9375l2.921875 0l0 5.984375l-2.921875 0l0 1.9375l8.078125 0l0 -1.9375l-2.78125 0l0 -7.921875l-5.296875 0zm2.734375 -2.53125q0 0.3125 0.125 0.578125q0.140625 0.25 0.390625 0.375q0.265625 0.15625 0.53125 0.1875q0.265625 0.015625 0.515625 -0.078125q0.546875 -0.046875 0.84375 -0.375q0.296875 -0.34375 0.265625 -0.84375q-0.03125 -0.5 -0.390625 -0.8125q-0.34375 -0.3125 -0.921875 -0.3125q-0.3125 0 -0.5625 0.09375q-0.25 0.09375 -0.421875 0.265625q-0.1875 0.171875 -0.28125 0.40625q-0.09375 0.234375 -0.09375 0.515625zm9.273697 2.53125l-2.03125 0l0 9.859375l2.15625 0l0 -7.484375q0.046875 -0.109375 0.109375 -0.21875q0.0625 -0.109375 0.140625 -0.1875q0.125 -0.109375 0.265625 -0.15625q0.140625 -0.0625 0.328125 -0.0625q0.1875 0 0.328125 0.046875q0.140625 0.046875 0.25 0.15625q0.109375 0.109375 0.15625 0.3125q0.0625 0.1875 0.0625 0.46875l0 7.125l2.09375 0l0 -7.296875q0 -0.09375 0 -0.140625q0 -0.0625 0 -0.09375q0.046875 -0.125 0.109375 -0.21875q0.0625 -0.109375 0.171875 -0.1875q0.109375 -0.078125 0.234375 -0.125q0.140625 -0.046875 0.3125 -0.046875q0.171875 0 0.3125 0.046875q0.15625 0.046875 0.265625 0.15625q0.109375 0.125 0.171875 0.328125q0.0625 0.1875 0.0625 0.46875l0 7.109375l2.15625 0l0 -7.109375q0 -0.78125 -0.15625 -1.34375q-0.15625 -0.5625 -0.453125 -0.921875q-0.28125 -0.34375 -0.671875 -0.5q-0.390625 -0.15625 -0.859375 -0.15625q-0.359375 0 -0.65625 0.09375q-0.296875 0.078125 -0.546875 0.25q-0.1875 0.125 -0.359375 0.3125q-0.15625 0.171875 -0.296875 0.390625q-0.078125 -0.234375 -0.203125 -0.40625q-0.109375 -0.1875 -0.265625 -0.3125q-0.21875 -0.171875 -0.5 -0.25q-0.28125 -0.078125 -0.640625 -0.078125q-0.703125 0 -1.203125 0.359375q-0.484375 0.34375 -0.765625 0.953125l-0.078125 -1.140625zm14.492447 10.046875q1.421875 0 2.453125 -0.5625q1.03125 -0.5625 1.515625 -1.265625l-1.203125 -1.25q-0.453125 0.578125 -1.15625 0.875q-0.703125 0.296875 -1.46875 0.296875q-0.5625 0 -1.03125 -0.171875q-0.46875 -0.1875 -0.84375 -0.515625q-0.34375 -0.3125 -0.546875 -0.71875q-0.203125 -0.40625 -0.328125 -1.015625l0 -0.046875l6.78125 0l0 -1.0q0 -1.078125 -0.296875 -1.96875q-0.296875 -0.890625 -0.859375 -1.53125q-0.578125 -0.640625 -1.40625 -0.984375q-0.8125 -0.359375 -1.875 -0.359375q-1.0 0 -1.859375 0.375q-0.859375 0.359375 -1.5 1.015625q-0.640625 0.671875 -1.0 1.609375q-0.359375 0.9375 -0.359375 2.078125l0 0.375q0 1.0 0.359375 1.875q0.359375 0.859375 1.015625 1.5q0.65625 0.640625 1.5625 1.015625q0.921875 0.375 2.046875 0.375zm-0.296875 -8.3125q0.53125 0 0.90625 0.171875q0.390625 0.171875 0.671875 0.453125q0.265625 0.28125 0.40625 0.671875q0.15625 0.390625 0.15625 0.796875l0 0.1875l-4.390625 0q0.09375 -0.53125 0.28125 -0.953125q0.203125 -0.421875 0.484375 -0.71875q0.296875 -0.296875 0.671875 -0.453125q0.375 -0.15625 0.8125 -0.15625z" fill-rule="nonzero"/><path fill="#000000" fill-opacity="0.0" d="m16.0 120.77165l109.76378 0l0 94.83464l-109.76378 0z" fill-rule="evenodd"/><path stroke="#000000" stroke-width="2.0" stroke-linejoin="round" stroke-linecap="butt" d="m16.0 120.77165l109.76378 0l0 94.83464l-109.76378 0z" fill-rule="evenodd"/><path fill="#000000" d="m36.958977 152.79648l0 -1.953125l-10.515625 0l0 1.953125l4.046875 0l0 11.3125l2.375 0l0 -11.3125l4.09375 0zm2.461197 11.3125l2.03125 0l1.140625 -5.421875l0.21875 -1.125l0.21875 1.125l1.1875 5.421875l2.03125 0l1.828125 -9.859375l-2.140625 0l-0.8125 5.921875l-0.15625 1.078125l-0.1875 -1.078125l-1.171875 -5.921875l-1.5625 0l-1.171875 5.953125l-0.1875 1.03125l-0.140625 -1.03125l-0.8125 -5.953125l-2.15625 0l1.84375 9.859375zm11.008072 -9.859375l0 1.9375l2.921875 0l0 5.984375l-2.921875 0l0 1.9375l8.078125 0l0 -1.9375l-2.78125 0l0 -7.921875l-5.296875 0zm2.734375 -2.53125q0 0.3125 0.125 0.578125q0.140625 0.25 0.390625 0.375q0.265625 0.15625 0.53125 0.1875q0.265625 0.015625 0.515625 -0.078125q0.546875 -0.046875 0.84375 -0.375q0.296875 -0.34375 0.265625 -0.84375q-0.03125 -0.5 -0.390625 -0.8125q-0.34375 -0.3125 -0.921875 -0.3125q-0.3125 0 -0.5625 0.09375q-0.25 0.09375 -0.421875 0.265625q-0.1875 0.171875 -0.28125 0.40625q-0.09375 0.234375 -0.09375 0.515625zm10.867447 10.5l5.65625 -6.515625l0 -1.453125l-8.71875 0l0 1.921875l5.46875 0l-5.59375 6.4375l0 1.5l9.09375 0l0 -1.890625l-5.90625 0zm11.195572 0l5.65625 -6.515625l0 -1.453125l-8.71875 0l0 1.921875l5.46875 0l-5.59375 6.4375l0 1.5l9.09375 0l0 -1.890625l-5.90625 0zm8.679947 -12.109375l0 1.953125l3.03125 0l0 10.109375l-3.03125 0l0 1.9375l8.3125 0l0 -1.9375l-2.90625 0l0 -12.0625l-5.40625 0zm15.414322 14.1875q1.421875 0 2.453125 -0.5625q1.03125 -0.5625 1.515625 -1.265625l-1.203125 -1.25q-0.453125 0.578125 -1.15625 0.875q-0.703125 0.296875 -1.46875 0.296875q-0.5625 0 -1.03125 -0.171875q-0.46875 -0.1875 -0.84375 -0.515625q-0.34375 -0.3125 -0.546875 -0.71875q-0.203125 -0.40625 -0.328125 -1.015625l0 -0.046875l6.78125 0l0 -1.0q0 -1.078125 -0.296875 -1.96875q-0.296875 -0.890625 -0.859375 -1.53125q-0.578125 -0.640625 -1.40625 -0.984375q-0.8125 -0.359375 -1.875 -0.359375q-1.0 0 -1.859375 0.375q-0.859375 0.359375 -1.5 1.015625q-0.640625 0.671875 -1.0 1.609375q-0.359375 0.9375 -0.359375 2.078125l0 0.375q0 1.0 0.359375 1.875q0.359375 0.859375 1.015625 1.5q0.65625 0.640625 1.5625 1.015625q0.921875 0.375 2.046875 0.375zm-0.296875 -8.3125q0.53125 0 0.90625 0.171875q0.390625 0.171875 0.671875 0.453125q0.265625 0.28125 0.40625 0.671875q0.15625 0.390625 0.15625 0.796875l0 0.1875l-4.390625 0q0.09375 -0.53125 0.28125 -0.953125q0.203125 -0.421875 0.484375 -0.71875q0.296875 -0.296875 0.671875 -0.453125q0.375 -0.15625 0.8125 -0.15625zm13.742447 -1.90625q-1.015625 0 -1.859375 0.484375q-0.828125 0.46875 -1.421875 1.296875l-0.03125 -0.234375l-0.09375 -1.375l-2.1875 0l0 9.859375l2.359375 0l0 -6.0q0.15625 -0.4375 0.421875 -0.75q0.265625 -0.328125 0.625 -0.53125q0.328125 -0.203125 0.734375 -0.296875q0.421875 -0.109375 0.9375 -0.109375q0.484375 0 0.984375 0.0625q0.515625 0.0625 1.015625 0.171875l0.34375 -2.34375q-0.296875 -0.09375 -0.796875 -0.15625q-0.484375 -0.078125 -1.03125 -0.078125z" fill-rule="nonzero"/><path fill="#000000" d="m47.701424 180.40585l0 -1.84375q-0.015625 -0.859375 -0.171875 -1.640625q-0.15625 -0.78125 -0.453125 -1.46875q-0.28125 -0.609375 -0.6875 -1.109375q-0.390625 -0.515625 -0.921875 -0.890625q-0.53125 -0.375 -1.203125 -0.578125q-0.671875 -0.21875 -1.4375 -0.21875q-0.78125 0 -1.421875 0.21875q-0.640625 0.203125 -1.171875 0.578125q-0.53125 0.375 -0.921875 0.90625q-0.390625 0.515625 -0.671875 1.15625q-0.28125 0.671875 -0.421875 1.453125q-0.140625 0.765625 -0.140625 1.59375l0 1.84375q0 0.796875 0.125 1.53125q0.125 0.734375 0.390625 1.375q0.265625 0.6875 0.671875 1.234375q0.421875 0.546875 0.9375 0.9375q0.53125 0.390625 1.1875 0.609375q0.65625 0.203125 1.4375 0.203125q0.75 0 1.390625 -0.1875q0.640625 -0.203125 1.171875 -0.546875q0.5625 -0.375 1.0 -0.921875q0.4375 -0.5625 0.71875 -1.234375q0.296875 -0.65625 0.4375 -1.40625q0.140625 -0.765625 0.15625 -1.59375zm-2.40625 -1.859375l0 1.859375q0 0.5 -0.0625 0.96875q-0.046875 0.46875 -0.15625 0.859375q-0.125 0.5 -0.34375 0.90625q-0.203125 0.40625 -0.515625 0.671875q-0.265625 0.25 -0.609375 0.375q-0.34375 0.125 -0.78125 0.125q-0.4375 0 -0.78125 -0.125q-0.34375 -0.140625 -0.59375 -0.390625q-0.28125 -0.265625 -0.484375 -0.671875q-0.203125 -0.421875 -0.3125 -0.90625q-0.09375 -0.40625 -0.140625 -0.859375q-0.046875 -0.46875 -0.046875 -0.953125l0 -1.859375q0 -0.5 0.046875 -0.96875q0.046875 -0.484375 0.15625 -0.890625q0.109375 -0.515625 0.328125 -0.90625q0.21875 -0.40625 0.53125 -0.6875q0.25 -0.203125 0.5625 -0.3125q0.328125 -0.125 0.734375 -0.125q0.421875 0 0.75 0.125q0.328125 0.125 0.59375 0.328125q0.328125 0.28125 0.546875 0.6875q0.21875 0.390625 0.359375 0.890625q0.109375 0.40625 0.15625 0.890625q0.0625 0.46875 0.0625 0.96875zm13.320572 2.734375l0 -0.1875q0 -0.875 -0.15625 -1.640625q-0.15625 -0.765625 -0.46875 -1.375q-0.21875 -0.421875 -0.5 -0.765625q-0.265625 -0.34375 -0.625 -0.609375q-0.421875 -0.296875 -0.953125 -0.453125q-0.53125 -0.171875 -1.171875 -0.171875q-0.46875 0 -0.875 0.09375q-0.40625 0.09375 -0.75 0.28125q-0.25 0.140625 -0.46875 0.328125q-0.21875 0.1875 -0.40625 0.40625l0 -5.078125l-2.359375 0l0 14.0l2.125 0l0.109375 -1.0625q0.15625 0.203125 0.328125 0.375q0.1875 0.171875 0.390625 0.3125q0.375 0.265625 0.84375 0.40625q0.484375 0.15625 1.078125 0.15625q0.609375 0 1.125 -0.15625q0.515625 -0.15625 0.9375 -0.453125q0.484375 -0.328125 0.828125 -0.8125q0.359375 -0.5 0.578125 -1.109375q0.1875 -0.53125 0.28125 -1.15625q0.109375 -0.625 0.109375 -1.328125zm-2.359375 -0.1875l0 0.1875q0 0.390625 -0.046875 0.765625q-0.03125 0.359375 -0.109375 0.6875q-0.109375 0.421875 -0.296875 0.765625q-0.1875 0.328125 -0.484375 0.546875q-0.21875 0.15625 -0.515625 0.25q-0.28125 0.078125 -0.640625 0.078125q-0.390625 0 -0.71875 -0.09375q-0.3125 -0.109375 -0.546875 -0.28125q-0.21875 -0.15625 -0.375 -0.359375q-0.15625 -0.203125 -0.28125 -0.453125l0 -4.015625q0.09375 -0.1875 0.21875 -0.359375q0.125 -0.1875 0.28125 -0.328125q0.265625 -0.234375 0.609375 -0.359375q0.34375 -0.125 0.796875 -0.125q0.34375 0 0.625 0.078125q0.28125 0.078125 0.5 0.234375q0.328125 0.25 0.515625 0.5625q0.1875 0.3125 0.296875 0.71875q0.078125 0.328125 0.125 0.71875q0.046875 0.375 0.046875 0.78125zm6.211197 -4.84375l0 1.9375l2.65625 0l0 8.109375q0 0.515625 -0.15625 0.859375q-0.140625 0.359375 -0.375 0.578125q-0.265625 0.21875 -0.609375 0.296875q-0.328125 0.09375 -0.71875 0.09375q-0.09375 0 -0.296875 0q-0.1875 0 -0.40625 -0.015625q-0.21875 -0.015625 -0.421875 -0.046875q-0.203125 -0.015625 -0.328125 -0.046875l-0.125 1.921875q0.1875 0.03125 0.359375 0.0625q0.1875 0.03125 0.359375 0.046875q0.234375 0.03125 0.484375 0.03125q0.25 0.015625 0.5 0.015625q0.96875 0 1.734375 -0.234375q0.765625 -0.21875 1.296875 -0.703125q0.53125 -0.453125 0.796875 -1.171875q0.28125 -0.703125 0.28125 -1.6875l0 -10.046875l-5.03125 0zm2.46875 -2.53125q0 0.546875 0.359375 0.90625q0.359375 0.359375 1.0 0.359375q0.625 0 1.0 -0.359375q0.375 -0.359375 0.375 -0.90625q0 -0.546875 -0.375 -0.90625q-0.375 -0.375 -1.0 -0.375q-0.640625 0 -1.0 0.375q-0.359375 0.375 -0.359375 0.90625zm11.992447 12.578125q1.421875 0 2.453125 -0.5625q1.03125 -0.5625 1.515625 -1.265625l-1.203125 -1.25q-0.453125 0.578125 -1.15625 0.875q-0.703125 0.296875 -1.46875 0.296875q-0.5625 0 -1.03125 -0.171875q-0.46875 -0.1875 -0.84375 -0.515625q-0.34375 -0.3125 -0.546875 -0.71875q-0.203125 -0.40625 -0.328125 -1.015625l0 -0.046875l6.78125 0l0 -1.0q0 -1.078125 -0.296875 -1.96875q-0.296875 -0.890625 -0.859375 -1.53125q-0.578125 -0.640625 -1.40625 -0.984375q-0.8125 -0.359375 -1.875 -0.359375q-1.0 0 -1.859375 0.375q-0.859375 0.359375 -1.5 1.015625q-0.640625 0.671875 -1.0 1.609375q-0.359375 0.9375 -0.359375 2.078125l0 0.375q0 1.0 0.359375 1.875q0.359375 0.859375 1.015625 1.5q0.65625 0.640625 1.5625 1.015625q0.921875 0.375 2.046875 0.375zm-0.296875 -8.3125q0.53125 0 0.90625 0.171875q0.390625 0.171875 0.671875 0.453125q0.265625 0.28125 0.40625 0.671875q0.15625 0.390625 0.15625 0.796875l0 0.1875l-4.390625 0q0.09375 -0.53125 0.28125 -0.953125q0.203125 -0.421875 0.484375 -0.71875q0.296875 -0.296875 0.671875 -0.453125q0.375 -0.15625 0.8125 -0.15625zm11.117447 6.421875q-0.640625 0 -1.0625 -0.25q-0.421875 -0.265625 -0.671875 -0.703125q-0.265625 -0.421875 -0.375 -0.96875q-0.09375 -0.5625 -0.09375 -1.140625l0 -0.296875q0 -0.578125 0.109375 -1.125q0.109375 -0.5625 0.359375 -0.984375q0.25 -0.4375 0.671875 -0.6875q0.421875 -0.265625 1.0625 -0.265625q0.4375 0 0.796875 0.15625q0.359375 0.140625 0.625 0.390625q0.25 0.25 0.390625 0.59375q0.15625 0.328125 0.140625 0.71875l2.21875 0q0.015625 -0.84375 -0.296875 -1.546875q-0.296875 -0.703125 -0.859375 -1.1875q-0.546875 -0.484375 -1.3125 -0.75q-0.765625 -0.28125 -1.671875 -0.28125q-1.140625 0 -2.0 0.390625q-0.859375 0.390625 -1.421875 1.0625q-0.59375 0.6875 -0.890625 1.59375q-0.28125 0.890625 -0.28125 1.921875l0 0.296875q0 1.015625 0.296875 1.921875q0.296875 0.90625 0.875 1.578125q0.5625 0.671875 1.421875 1.0625q0.875 0.390625 2.015625 0.390625q0.828125 0 1.578125 -0.265625q0.75 -0.265625 1.328125 -0.734375q0.5625 -0.46875 0.890625 -1.109375q0.34375 -0.640625 0.328125 -1.390625l-2.21875 0q0.015625 0.359375 -0.140625 0.65625q-0.15625 0.296875 -0.4375 0.5q-0.265625 0.21875 -0.625 0.34375q-0.359375 0.109375 -0.75 0.109375zm11.383072 -10.5625l-2.359375 0l0 2.40625l-2.328125 0l0 1.75l2.328125 0l0 4.671875q0 0.953125 0.25 1.640625q0.25 0.6875 0.71875 1.125q0.453125 0.4375 1.09375 0.65625q0.640625 0.203125 1.421875 0.203125q0.40625 0 0.828125 -0.046875q0.4375 -0.03125 0.828125 -0.109375q0.390625 -0.0625 0.71875 -0.171875q0.34375 -0.109375 0.609375 -0.265625l-0.25 -1.625q-0.15625 0.046875 -0.40625 0.09375q-0.234375 0.046875 -0.515625 0.078125q-0.28125 0.046875 -0.59375 0.078125q-0.296875 0.03125 -0.578125 0.03125q-0.390625 0 -0.71875 -0.09375q-0.328125 -0.09375 -0.5625 -0.3125q-0.234375 -0.21875 -0.359375 -0.578125q-0.125 -0.359375 -0.125 -0.90625l0 -4.46875l3.6875 0l0 -1.75l-3.6875 0l0 -2.40625z" fill-rule="nonzero"/><path fill="#000000" fill-opacity="0.0" d="m213.24419 96.0l0 -23.307083" fill-rule="evenodd"/><path stroke="#000000" stroke-width="1.0" stroke-linejoin="round" stroke-linecap="butt" d="m213.24417 90.0l0 -11.307083" fill-rule="evenodd"/><path fill="#000000" stroke="#000000" stroke-width="1.0" stroke-linecap="butt" d="m211.59244 90.0l1.6517334 4.538101l1.6517334 -4.538101z" fill-rule="evenodd"/><path fill="#000000" stroke="#000000" stroke-width="1.0" stroke-linecap="butt" d="m214.8959 78.69292l-1.6517334 -4.538101l-1.6517334 4.538101z" fill-rule="evenodd"/><path fill="#000000" fill-opacity="0.0" d="m70.88189 120.77165l0 -47.622047" fill-rule="evenodd"/><path stroke="#000000" stroke-width="1.0" stroke-linejoin="round" stroke-linecap="butt" d="m70.88189 114.77165l0 -35.622047" fill-rule="evenodd"/><path fill="#000000" stroke="#000000" stroke-width="1.0" stroke-linecap="butt" d="m69.230156 114.77165l1.6517334 4.538101l1.6517334 -4.538101z" fill-rule="evenodd"/><path fill="#000000" stroke="#000000" stroke-width="1.0" stroke-linecap="butt" d="m72.53362 79.149605l-1.6517334 -4.5380936l-1.6517334 4.5380936z" fill-rule="evenodd"/><path fill="#000000" fill-opacity="0.0" d="m213.24419 152.37796l0 31.62204" fill-rule="evenodd"/><path stroke="#000000" stroke-width="1.0" stroke-linejoin="round" stroke-linecap="butt" d="m213.24417 158.37796l0 19.62204" fill-rule="evenodd"/><path fill="#000000" stroke="#000000" stroke-width="1.0" stroke-linecap="butt" d="m214.8959 158.37794l-1.6517334 -4.538086l-1.6517334 4.538086z" fill-rule="evenodd"/><path fill="#000000" stroke="#000000" stroke-width="1.0" stroke-linecap="butt" d="m211.59244 178.0l1.6517334 4.538101l1.6517334 -4.538101z" fill-rule="evenodd"/><path fill="#000000" fill-opacity="0.0" d="m213.24419 240.37796l0 24.629913" fill-rule="evenodd"/><path stroke="#000000" stroke-width="1.0" stroke-linejoin="round" stroke-linecap="butt" d="m213.24417 246.37796l0 12.629913" fill-rule="evenodd"/><path fill="#000000" stroke="#000000" stroke-width="1.0" stroke-linecap="butt" d="m214.8959 246.37794l-1.6517334 -4.538086l-1.6517334 4.538086z" fill-rule="evenodd"/><path fill="#000000" stroke="#000000" stroke-width="1.0" stroke-linecap="butt" d="m211.59244 259.00787l1.6517334 4.538086l1.6517334 -4.538086z" fill-rule="evenodd"/><path fill="#000000" fill-opacity="0.0" d="m70.88189 215.6063l0 48.629913" fill-rule="evenodd"/><path stroke="#000000" stroke-width="1.0" stroke-linejoin="round" stroke-linecap="butt" d="m70.88189 221.6063l0 36.629913" fill-rule="evenodd"/><path fill="#000000" stroke="#000000" stroke-width="1.0" stroke-linecap="butt" d="m72.53362 221.6063l-1.6517334 -4.538086l-1.6517334 4.538086z" fill-rule="evenodd"/><path fill="#000000" stroke="#000000" stroke-width="1.0" stroke-linecap="butt" d="m69.230156 258.2362l1.6517334 4.5381165l1.6517334 -4.5381165z" fill-rule="evenodd"/><path fill="#000000" fill-opacity="0.0" d="m125.92388 201.62035l32.503944 0" fill-rule="evenodd"/><path stroke="#000000" stroke-width="1.0" stroke-linejoin="round" stroke-linecap="butt" d="m131.92389 201.62035l20.503937 0" fill-rule="evenodd"/><path fill="#000000" stroke="#000000" stroke-width="1.0" stroke-linecap="butt" d="m131.92389 199.96861l-4.538101 1.6517334l4.538101 1.6517334z" fill-rule="evenodd"/><path fill="#000000" stroke="#000000" stroke-width="1.0" stroke-linecap="butt" d="m152.42783 203.27208l4.538086 -1.6517334l-4.538086 -1.6517334z" fill-rule="evenodd"/><path fill="#000000" fill-opacity="0.0" d="m142.06299 344.0l0 -23.62204" fill-rule="evenodd"/><path stroke="#000000" stroke-width="1.0" stroke-linejoin="round" stroke-linecap="butt" d="m142.06299 338.0l0 -11.62204" fill-rule="evenodd"/><path fill="#000000" stroke="#000000" stroke-width="1.0" stroke-linecap="butt" d="m140.41125 338.0l1.6517334 4.538086l1.6517334 -4.538086z" fill-rule="evenodd"/><path fill="#000000" stroke="#000000" stroke-width="1.0" stroke-linecap="butt" d="m143.71472 326.37796l-1.6517334 -4.5381165l-1.6517334 4.5381165z" fill-rule="evenodd"/></g></svg>